<svg width="1304" height="448" viewBox="0 0 1304 448" fill="none" xmlns="http://www.w3.org/2000/svg">
<g id="graph">
<rect id="Rectangle 22" width="1304" height="448" rx="30" fill="url(#paint0_linear)"/>
<g id="graph  items">
<path id="Python" d="M65.804 99.975C66.84 99.975 67.6293 99.7407 68.172 99.272C68.7393 98.7787 69.023 98.0387 69.023 97.052C69.023 96.1147 68.727 95.3993 68.135 94.906C67.5677 94.388 66.729 94.129 65.619 94.129C65.2243 94.129 64.8913 94.1413 64.62 94.166C64.3733 94.166 64.1143 94.1907 63.843 94.24V99.975H65.804ZM63.88 111.852C63.6087 111.926 63.177 112 62.585 112.074C62.0177 112.148 61.4503 112.185 60.883 112.185C60.3157 112.185 59.81 112.136 59.366 112.037C58.9467 111.963 58.589 111.815 58.293 111.593C57.997 111.371 57.775 111.063 57.627 110.668C57.479 110.273 57.405 109.755 57.405 109.114V91.687C57.405 91.169 57.5407 90.7743 57.812 90.503C58.108 90.207 58.5027 89.9727 58.996 89.8C59.8347 89.504 60.7843 89.2943 61.845 89.171C62.9303 89.023 64.0157 88.949 65.101 88.949C68.505 88.949 71.1073 89.6767 72.908 91.132C74.7087 92.5873 75.609 94.5607 75.609 97.052C75.609 98.2607 75.4117 99.3583 75.017 100.345C74.647 101.307 74.0797 102.146 73.315 102.861C72.575 103.552 71.6253 104.094 70.466 104.489C69.3313 104.859 68.0117 105.044 66.507 105.044H63.88V111.852ZM81.235 107.412C80.9637 106.795 80.6677 106.105 80.347 105.34C80.051 104.575 79.7304 103.7 79.385 102.713C79.0644 101.726 78.719 100.604 78.349 99.346C78.0037 98.0633 77.6337 96.5957 77.239 94.943C77.5844 94.5977 78.0407 94.3017 78.608 94.055C79.2 93.7837 79.8414 93.648 80.532 93.648C81.3954 93.648 82.1107 93.833 82.678 94.203C83.2454 94.5483 83.6647 95.2143 83.936 96.201L86.859 106.376H87.007C87.303 105.537 87.5867 104.625 87.858 103.638C88.154 102.651 88.4377 101.64 88.709 100.604C88.9804 99.5433 89.227 98.495 89.449 97.459C89.6957 96.3983 89.9054 95.3623 90.078 94.351C90.966 93.8823 91.9404 93.648 93.001 93.648C93.8644 93.648 94.5797 93.833 95.147 94.203C95.7144 94.573 95.998 95.2143 95.998 96.127C95.998 96.793 95.9117 97.57 95.739 98.458C95.5664 99.3213 95.332 100.246 95.036 101.233C94.7647 102.22 94.4317 103.243 94.037 104.304C93.667 105.34 93.2724 106.364 92.853 107.375C92.4337 108.386 92.002 109.348 91.558 110.261C91.114 111.149 90.6824 111.951 90.263 112.666C89.5724 113.875 88.931 114.861 88.339 115.626C87.747 116.391 87.1797 116.983 86.637 117.402C86.0944 117.846 85.5517 118.142 85.009 118.29C84.4664 118.463 83.899 118.549 83.307 118.549C82.271 118.549 81.4324 118.241 80.791 117.624C80.1497 117.007 79.7674 116.206 79.644 115.219C80.4334 114.602 81.2227 113.912 82.012 113.147C82.8014 112.407 83.5167 111.642 84.158 110.853C83.7387 110.73 83.2824 110.446 82.789 110.002C82.3204 109.533 81.8024 108.67 81.235 107.412ZM105.092 105.821C105.092 106.462 105.289 106.919 105.684 107.19C106.103 107.461 106.683 107.597 107.423 107.597C107.793 107.597 108.175 107.572 108.57 107.523C108.965 107.449 109.31 107.363 109.606 107.264C109.828 107.535 110.013 107.844 110.161 108.189C110.334 108.51 110.42 108.904 110.42 109.373C110.42 110.31 110.062 111.075 109.347 111.667C108.656 112.259 107.423 112.555 105.647 112.555C103.476 112.555 101.799 112.062 100.615 111.075C99.4556 110.088 98.8759 108.485 98.8759 106.265V90.429C99.1473 90.355 99.5296 90.281 100.023 90.207C100.541 90.1083 101.084 90.059 101.651 90.059C102.736 90.059 103.575 90.2563 104.167 90.651C104.784 91.021 105.092 91.8227 105.092 93.056V95.424H109.939C110.087 95.6953 110.223 96.0407 110.346 96.46C110.494 96.8547 110.568 97.2987 110.568 97.792C110.568 98.6553 110.371 99.2843 109.976 99.679C109.606 100.049 109.1 100.234 108.459 100.234H105.092V105.821ZM131.376 111.963C131.13 112.037 130.735 112.111 130.192 112.185C129.674 112.259 129.132 112.296 128.564 112.296C128.022 112.296 127.528 112.259 127.084 112.185C126.665 112.111 126.307 111.963 126.011 111.741C125.715 111.519 125.481 111.223 125.308 110.853C125.16 110.458 125.086 109.953 125.086 109.336V101.122C125.086 100.111 124.827 99.4077 124.309 99.013C123.816 98.5937 123.199 98.384 122.459 98.384C121.966 98.384 121.497 98.4457 121.053 98.569C120.609 98.6923 120.252 98.8403 119.98 99.013V111.963C119.734 112.037 119.339 112.111 118.796 112.185C118.278 112.259 117.736 112.296 117.168 112.296C116.626 112.296 116.132 112.259 115.688 112.185C115.269 112.111 114.911 111.963 114.615 111.741C114.319 111.519 114.085 111.223 113.912 110.853C113.764 110.458 113.69 109.953 113.69 109.336V87.876C113.962 87.8267 114.356 87.765 114.874 87.691C115.417 87.5923 115.96 87.543 116.502 87.543C117.045 87.543 117.526 87.58 117.945 87.654C118.389 87.728 118.759 87.876 119.055 88.098C119.351 88.32 119.573 88.6283 119.721 89.023C119.894 89.393 119.98 89.8863 119.98 90.503V94.129C120.301 94.0057 120.782 93.87 121.423 93.722C122.089 93.5493 122.817 93.463 123.606 93.463C126.048 93.463 127.948 94.0797 129.304 95.313C130.686 96.5217 131.376 98.3347 131.376 100.752V111.963ZM153.871 103.009C153.871 104.538 153.637 105.907 153.168 107.116C152.699 108.3 152.033 109.299 151.17 110.113C150.331 110.927 149.32 111.544 148.136 111.963C146.952 112.382 145.632 112.592 144.177 112.592C142.722 112.592 141.402 112.37 140.218 111.926C139.034 111.482 138.01 110.853 137.147 110.039C136.308 109.2 135.655 108.189 135.186 107.005C134.717 105.821 134.483 104.489 134.483 103.009C134.483 101.554 134.717 100.234 135.186 99.05C135.655 97.866 136.308 96.867 137.147 96.053C138.01 95.2143 139.034 94.573 140.218 94.129C141.402 93.685 142.722 93.463 144.177 93.463C145.632 93.463 146.952 93.6973 148.136 94.166C149.32 94.61 150.331 95.2513 151.17 96.09C152.033 96.904 152.699 97.903 153.168 99.087C153.637 100.271 153.871 101.578 153.871 103.009ZM140.921 103.009C140.921 104.514 141.205 105.673 141.772 106.487C142.364 107.276 143.178 107.671 144.214 107.671C145.25 107.671 146.039 107.264 146.582 106.45C147.149 105.636 147.433 104.489 147.433 103.009C147.433 101.529 147.149 100.394 146.582 99.605C146.015 98.791 145.213 98.384 144.177 98.384C143.141 98.384 142.339 98.791 141.772 99.605C141.205 100.394 140.921 101.529 140.921 103.009ZM168.336 100.604C168.336 99.8393 168.114 99.2843 167.67 98.939C167.25 98.569 166.671 98.384 165.931 98.384C165.437 98.384 164.944 98.4457 164.451 98.569C163.982 98.6923 163.575 98.8773 163.23 99.124V111.963C162.983 112.037 162.588 112.111 162.046 112.185C161.528 112.259 160.985 112.296 160.418 112.296C159.875 112.296 159.382 112.259 158.938 112.185C158.518 112.111 158.161 111.963 157.865 111.741C157.569 111.519 157.334 111.223 157.162 110.853C157.014 110.458 156.94 109.953 156.94 109.336V98.236C156.94 97.57 157.075 97.0273 157.347 96.608C157.643 96.1887 158.037 95.8063 158.531 95.461C159.369 94.869 160.418 94.388 161.676 94.018C162.958 93.648 164.377 93.463 165.931 93.463C168.718 93.463 170.864 94.0797 172.369 95.313C173.873 96.5217 174.626 98.2113 174.626 100.382V111.963C174.379 112.037 173.984 112.111 173.442 112.185C172.924 112.259 172.381 112.296 171.814 112.296C171.271 112.296 170.778 112.259 170.334 112.185C169.914 112.111 169.557 111.963 169.261 111.741C168.965 111.519 168.73 111.223 168.558 110.853C168.41 110.458 168.336 109.953 168.336 109.336V100.604Z" fill="white"/>
<path id="Css" d="M69.838 168.092C67.9387 168.092 66.4833 168.672 65.472 169.831C64.4607 170.99 63.955 172.631 63.955 174.752C63.955 176.898 64.51 178.551 65.62 179.71C66.7547 180.869 68.2717 181.449 70.171 181.449C71.1823 181.449 72.0333 181.313 72.724 181.042C73.4393 180.771 74.1177 180.462 74.759 180.117C75.1783 180.462 75.499 180.882 75.721 181.375C75.9677 181.844 76.091 182.399 76.091 183.04C76.091 184.051 75.5237 184.915 74.389 185.63C73.279 186.321 71.577 186.666 69.283 186.666C67.6303 186.666 66.0763 186.432 64.621 185.963C63.1657 185.494 61.8953 184.779 60.81 183.817C59.7247 182.83 58.8613 181.597 58.22 180.117C57.6033 178.612 57.295 176.824 57.295 174.752C57.295 172.828 57.591 171.138 58.183 169.683C58.7997 168.203 59.626 166.957 60.662 165.946C61.7227 164.935 62.956 164.17 64.362 163.652C65.768 163.134 67.2727 162.875 68.876 162.875C71.1453 162.875 72.8967 163.245 74.13 163.985C75.388 164.725 76.017 165.675 76.017 166.834C76.017 167.475 75.8567 168.03 75.536 168.499C75.2153 168.968 74.8453 169.338 74.426 169.609C73.7847 169.19 73.094 168.832 72.354 168.536C71.6387 168.24 70.8 168.092 69.838 168.092ZM94.2317 180.635C94.2317 182.51 93.5287 183.977 92.1227 185.038C90.7167 186.099 88.6447 186.629 85.9067 186.629C84.8707 186.629 83.9087 186.555 83.0207 186.407C82.1327 186.259 81.368 186.037 80.7267 185.741C80.11 185.42 79.6167 185.026 79.2467 184.557C78.9014 184.088 78.7287 183.533 78.7287 182.892C78.7287 182.3 78.852 181.807 79.0987 181.412C79.3454 180.993 79.6414 180.647 79.9867 180.376C80.702 180.771 81.516 181.128 82.4287 181.449C83.366 181.745 84.439 181.893 85.6477 181.893C86.4124 181.893 86.992 181.782 87.3867 181.56C87.806 181.338 88.0157 181.042 88.0157 180.672C88.0157 180.327 87.8677 180.055 87.5717 179.858C87.2757 179.661 86.7824 179.5 86.0917 179.377L84.9817 179.155C82.8357 178.736 81.2324 178.082 80.1717 177.194C79.1357 176.281 78.6177 174.986 78.6177 173.309C78.6177 172.396 78.815 171.57 79.2097 170.83C79.6044 170.09 80.1594 169.473 80.8747 168.98C81.59 168.487 82.441 168.104 83.4277 167.833C84.439 167.562 85.549 167.426 86.7577 167.426C87.6704 167.426 88.5214 167.5 89.3107 167.648C90.1247 167.771 90.8277 167.969 91.4197 168.24C92.0117 168.511 92.4804 168.869 92.8257 169.313C93.171 169.732 93.3437 170.238 93.3437 170.83C93.3437 171.397 93.2327 171.891 93.0107 172.31C92.8134 172.705 92.5544 173.038 92.2337 173.309C92.0364 173.186 91.7404 173.062 91.3457 172.939C90.951 172.791 90.5194 172.668 90.0507 172.569C89.582 172.446 89.101 172.347 88.6077 172.273C88.139 172.199 87.7074 172.162 87.3127 172.162C86.4987 172.162 85.8697 172.261 85.4257 172.458C84.9817 172.631 84.7597 172.914 84.7597 173.309C84.7597 173.58 84.883 173.802 85.1297 173.975C85.3764 174.148 85.845 174.308 86.5357 174.456L87.6827 174.715C90.0507 175.258 91.728 176.01 92.7147 176.972C93.726 177.909 94.2317 179.13 94.2317 180.635ZM112.443 180.635C112.443 182.51 111.74 183.977 110.334 185.038C108.928 186.099 106.856 186.629 104.118 186.629C103.082 186.629 102.12 186.555 101.232 186.407C100.344 186.259 99.579 186.037 98.9376 185.741C98.321 185.42 97.8276 185.026 97.4576 184.557C97.1123 184.088 96.9396 183.533 96.9396 182.892C96.9396 182.3 97.063 181.807 97.3096 181.412C97.5563 180.993 97.8523 180.647 98.1976 180.376C98.913 180.771 99.727 181.128 100.64 181.449C101.577 181.745 102.65 181.893 103.859 181.893C104.623 181.893 105.203 181.782 105.598 181.56C106.017 181.338 106.227 181.042 106.227 180.672C106.227 180.327 106.079 180.055 105.783 179.858C105.487 179.661 104.993 179.5 104.303 179.377L103.193 179.155C101.047 178.736 99.4433 178.082 98.3826 177.194C97.3466 176.281 96.8286 174.986 96.8286 173.309C96.8286 172.396 97.026 171.57 97.4206 170.83C97.8153 170.09 98.3703 169.473 99.0856 168.98C99.801 168.487 100.652 168.104 101.639 167.833C102.65 167.562 103.76 167.426 104.969 167.426C105.881 167.426 106.732 167.5 107.522 167.648C108.336 167.771 109.039 167.969 109.631 168.24C110.223 168.511 110.691 168.869 111.037 169.313C111.382 169.732 111.555 170.238 111.555 170.83C111.555 171.397 111.444 171.891 111.222 172.31C111.024 172.705 110.765 173.038 110.445 173.309C110.247 173.186 109.951 173.062 109.557 172.939C109.162 172.791 108.73 172.668 108.262 172.569C107.793 172.446 107.312 172.347 106.819 172.273C106.35 172.199 105.918 172.162 105.524 172.162C104.71 172.162 104.081 172.261 103.637 172.458C103.193 172.631 102.971 172.914 102.971 173.309C102.971 173.58 103.094 173.802 103.341 173.975C103.587 174.148 104.056 174.308 104.747 174.456L105.894 174.715C108.262 175.258 109.939 176.01 110.926 176.972C111.937 177.909 112.443 179.13 112.443 180.635Z" fill="white"/>
<path id="Js" d="M62.475 244.578C62.7463 244.529 63.178 244.467 63.77 244.393C64.362 244.294 64.9293 244.245 65.472 244.245C66.0393 244.245 66.5327 244.294 66.952 244.393C67.396 244.467 67.766 244.615 68.062 244.837C68.358 245.059 68.58 245.367 68.728 245.762C68.876 246.157 68.95 246.675 68.95 247.316V261.006C68.95 263.201 68.321 264.854 67.063 265.964C65.805 267.049 63.955 267.592 61.513 267.592C60.2303 267.592 59.1943 267.395 58.405 267C57.8377 266.729 57.4183 266.359 57.147 265.89C56.9003 265.421 56.777 264.891 56.777 264.299C56.777 263.806 56.8387 263.374 56.962 263.004C57.11 262.634 57.2827 262.338 57.48 262.116C57.9487 262.215 58.3433 262.289 58.664 262.338C59.0093 262.363 59.3793 262.375 59.774 262.375C60.736 262.375 61.4267 262.141 61.846 261.672C62.2653 261.179 62.475 260.463 62.475 259.526V244.578ZM88.342 261.635C88.342 263.51 87.639 264.977 86.233 266.038C84.827 267.099 82.755 267.629 80.017 267.629C78.981 267.629 78.019 267.555 77.131 267.407C76.243 267.259 75.4784 267.037 74.837 266.741C74.2204 266.42 73.727 266.026 73.357 265.557C73.0117 265.088 72.839 264.533 72.839 263.892C72.839 263.3 72.9624 262.807 73.209 262.412C73.4557 261.993 73.7517 261.647 74.097 261.376C74.8124 261.771 75.6264 262.128 76.539 262.449C77.4764 262.745 78.5494 262.893 79.758 262.893C80.5227 262.893 81.1024 262.782 81.497 262.56C81.9164 262.338 82.126 262.042 82.126 261.672C82.126 261.327 81.978 261.055 81.682 260.858C81.386 260.661 80.8927 260.5 80.202 260.377L79.092 260.155C76.946 259.736 75.3427 259.082 74.282 258.194C73.246 257.281 72.728 255.986 72.728 254.309C72.728 253.396 72.9254 252.57 73.32 251.83C73.7147 251.09 74.2697 250.473 74.985 249.98C75.7004 249.487 76.5514 249.104 77.538 248.833C78.5494 248.562 79.6594 248.426 80.868 248.426C81.7807 248.426 82.6317 248.5 83.421 248.648C84.235 248.771 84.938 248.969 85.53 249.24C86.122 249.511 86.5907 249.869 86.936 250.313C87.2814 250.732 87.454 251.238 87.454 251.83C87.454 252.397 87.343 252.891 87.121 253.31C86.9237 253.705 86.6647 254.038 86.344 254.309C86.1467 254.186 85.8507 254.062 85.456 253.939C85.0614 253.791 84.6297 253.668 84.161 253.569C83.6924 253.446 83.2114 253.347 82.718 253.273C82.2494 253.199 81.8177 253.162 81.423 253.162C80.609 253.162 79.98 253.261 79.536 253.458C79.092 253.631 78.87 253.914 78.87 254.309C78.87 254.58 78.9934 254.802 79.24 254.975C79.4867 255.148 79.9554 255.308 80.646 255.456L81.793 255.715C84.161 256.258 85.8384 257.01 86.825 257.972C87.8364 258.909 88.342 260.13 88.342 261.635Z" fill="white"/>
<path id="Html" d="M77.459 336.852C77.1877 336.926 76.756 337 76.164 337.074C75.5967 337.148 75.0293 337.185 74.462 337.185C73.8947 337.185 73.389 337.136 72.945 337.037C72.5257 336.963 72.168 336.815 71.872 336.593C71.576 336.371 71.354 336.063 71.206 335.668C71.058 335.273 70.984 334.755 70.984 334.114V328.342H63.88V336.852C63.6087 336.926 63.177 337 62.585 337.074C62.0177 337.148 61.4503 337.185 60.883 337.185C60.3157 337.185 59.81 337.136 59.366 337.037C58.9467 336.963 58.589 336.815 58.293 336.593C57.997 336.371 57.775 336.063 57.627 335.668C57.479 335.273 57.405 334.755 57.405 334.114V314.578C57.6763 314.529 58.108 314.467 58.7 314.393C59.292 314.294 59.8593 314.245 60.402 314.245C60.9693 314.245 61.4627 314.294 61.882 314.393C62.326 314.467 62.696 314.615 62.992 314.837C63.288 315.059 63.51 315.367 63.658 315.762C63.806 316.157 63.88 316.675 63.88 317.316V323.236H70.984V314.578C71.2553 314.529 71.687 314.467 72.279 314.393C72.871 314.294 73.4383 314.245 73.981 314.245C74.5483 314.245 75.0417 314.294 75.461 314.393C75.905 314.467 76.275 314.615 76.571 314.837C76.867 315.059 77.089 315.367 77.237 315.762C77.385 316.157 77.459 316.675 77.459 317.316V336.852ZM88.0734 330.821C88.0734 331.462 88.2707 331.919 88.6654 332.19C89.0847 332.461 89.6644 332.597 90.4044 332.597C90.7744 332.597 91.1567 332.572 91.5514 332.523C91.946 332.449 92.2914 332.363 92.5874 332.264C92.8094 332.535 92.9944 332.844 93.1424 333.189C93.315 333.51 93.4014 333.904 93.4014 334.373C93.4014 335.31 93.0437 336.075 92.3284 336.667C91.6377 337.259 90.4044 337.555 88.6284 337.555C86.4577 337.555 84.7804 337.062 83.5964 336.075C82.437 335.088 81.8574 333.485 81.8574 331.265V315.429C82.1287 315.355 82.511 315.281 83.0044 315.207C83.5224 315.108 84.065 315.059 84.6324 315.059C85.7177 315.059 86.5564 315.256 87.1484 315.651C87.765 316.021 88.0734 316.823 88.0734 318.056V320.424H92.9204C93.0684 320.695 93.204 321.041 93.3274 321.46C93.4754 321.855 93.5494 322.299 93.5494 322.792C93.5494 323.655 93.352 324.284 92.9574 324.679C92.5874 325.049 92.0817 325.234 91.4404 325.234H88.0734V330.821ZM105.219 318.463C106.23 318.463 107.217 318.611 108.179 318.907C109.165 319.178 110.016 319.598 110.732 320.165C111.472 319.672 112.298 319.265 113.211 318.944C114.148 318.623 115.27 318.463 116.578 318.463C117.515 318.463 118.428 318.586 119.316 318.833C120.228 319.08 121.03 319.474 121.721 320.017C122.436 320.535 123.003 321.238 123.423 322.126C123.842 322.989 124.052 324.05 124.052 325.308V336.963C123.805 337.037 123.41 337.111 122.868 337.185C122.35 337.259 121.807 337.296 121.24 337.296C120.697 337.296 120.204 337.259 119.76 337.185C119.34 337.111 118.983 336.963 118.687 336.741C118.391 336.519 118.156 336.223 117.984 335.853C117.836 335.458 117.762 334.953 117.762 334.336V325.493C117.762 324.753 117.552 324.223 117.133 323.902C116.713 323.557 116.146 323.384 115.431 323.384C115.085 323.384 114.715 323.47 114.321 323.643C113.926 323.791 113.63 323.951 113.433 324.124C113.457 324.223 113.47 324.321 113.47 324.42C113.47 324.494 113.47 324.568 113.47 324.642V336.963C113.198 337.037 112.791 337.111 112.249 337.185C111.731 337.259 111.2 337.296 110.658 337.296C110.115 337.296 109.622 337.259 109.178 337.185C108.758 337.111 108.401 336.963 108.105 336.741C107.809 336.519 107.574 336.223 107.402 335.853C107.254 335.458 107.18 334.953 107.18 334.336V325.493C107.18 324.753 106.945 324.223 106.477 323.902C106.033 323.557 105.49 323.384 104.849 323.384C104.405 323.384 104.022 323.458 103.702 323.606C103.381 323.729 103.11 323.853 102.888 323.976V336.963C102.641 337.037 102.246 337.111 101.704 337.185C101.186 337.259 100.643 337.296 100.076 337.296C99.5332 337.296 99.0398 337.259 98.5958 337.185C98.1765 337.111 97.8188 336.963 97.5228 336.741C97.2268 336.519 96.9925 336.223 96.8198 335.853C96.6718 335.458 96.5978 334.953 96.5978 334.336V323.162C96.5978 322.496 96.7335 321.966 97.0048 321.571C97.3008 321.176 97.6955 320.806 98.1888 320.461C99.0275 319.869 100.063 319.388 101.297 319.018C102.555 318.648 103.862 318.463 105.219 318.463ZM134.29 336.963C134.019 337.012 133.612 337.074 133.069 337.148C132.551 337.247 132.021 337.296 131.478 337.296C130.935 337.296 130.442 337.259 129.998 337.185C129.579 337.111 129.221 336.963 128.925 336.741C128.629 336.519 128.395 336.223 128.222 335.853C128.074 335.458 128 334.953 128 334.336V312.876C128.271 312.827 128.666 312.765 129.184 312.691C129.727 312.592 130.269 312.543 130.812 312.543C131.355 312.543 131.836 312.58 132.255 312.654C132.699 312.728 133.069 312.876 133.365 313.098C133.661 313.32 133.883 313.628 134.031 314.023C134.204 314.393 134.29 314.886 134.29 315.503V336.963Z" fill="white"/>
<g id="num">
<path id="10" d="M195.41 403.188L193.21 403.87C192.99 403.723 192.77 403.518 192.55 403.254C192.33 402.99 192.22 402.623 192.22 402.154C192.22 401.274 192.755 400.658 193.826 400.306L196.29 399.47H197.104C197.735 399.47 198.233 399.653 198.6 400.02C198.967 400.387 199.15 400.885 199.15 401.516V412.978C198.989 413.007 198.747 413.044 198.424 413.088C198.116 413.147 197.801 413.176 197.478 413.176C197.155 413.176 196.862 413.154 196.598 413.11C196.349 413.066 196.136 412.978 195.96 412.846C195.784 412.714 195.645 412.538 195.542 412.318C195.454 412.083 195.41 411.783 195.41 411.416V403.188ZM209.437 406.312C209.437 405.021 209.246 404.024 208.865 403.32C208.498 402.616 207.97 402.264 207.281 402.264C206.591 402.264 206.063 402.616 205.697 403.32C205.345 404.024 205.169 405.021 205.169 406.312C205.169 407.603 205.345 408.607 205.697 409.326C206.063 410.03 206.591 410.382 207.281 410.382C207.97 410.382 208.498 410.03 208.865 409.326C209.246 408.607 209.437 407.603 209.437 406.312ZM213.199 406.312C213.199 407.441 213.052 408.446 212.759 409.326C212.465 410.206 212.055 410.947 211.527 411.548C211.013 412.135 210.39 412.582 209.657 412.89C208.938 413.198 208.153 413.352 207.303 413.352C206.437 413.352 205.638 413.198 204.905 412.89C204.186 412.582 203.563 412.135 203.035 411.548C202.521 410.947 202.118 410.206 201.825 409.326C201.546 408.446 201.407 407.441 201.407 406.312C201.407 405.183 201.546 404.185 201.825 403.32C202.118 402.44 202.521 401.707 203.035 401.12C203.563 400.519 204.186 400.064 204.905 399.756C205.638 399.448 206.437 399.294 207.303 399.294C208.153 399.294 208.938 399.448 209.657 399.756C210.39 400.064 211.013 400.519 211.527 401.12C212.055 401.707 212.465 402.44 212.759 403.32C213.052 404.185 213.199 405.183 213.199 406.312Z" fill="white"/>
<path id="20" d="M305.302 399.294C306.138 399.294 306.879 399.404 307.524 399.624C308.169 399.829 308.719 400.115 309.174 400.482C309.629 400.849 309.973 401.281 310.208 401.78C310.443 402.279 310.56 402.814 310.56 403.386C310.56 404.926 309.687 406.393 307.942 407.786L305.06 410.096H310.34C310.428 410.257 310.509 410.463 310.582 410.712C310.67 410.961 310.714 411.233 310.714 411.526C310.714 412.054 310.597 412.435 310.362 412.67C310.127 412.89 309.819 413 309.438 413H301.804C301.481 412.78 301.225 412.501 301.034 412.164C300.858 411.812 300.77 411.401 300.77 410.932C300.77 410.433 300.873 410.015 301.078 409.678C301.283 409.326 301.511 409.047 301.76 408.842L304.796 406.246C305.177 405.923 305.493 405.637 305.742 405.388C305.991 405.124 306.189 404.889 306.336 404.684C306.497 404.479 306.607 404.288 306.666 404.112C306.739 403.936 306.776 403.767 306.776 403.606C306.776 403.195 306.593 402.873 306.226 402.638C305.874 402.403 305.434 402.286 304.906 402.286C304.319 402.286 303.791 402.381 303.322 402.572C302.867 402.748 302.486 402.939 302.178 403.144C301.929 402.968 301.723 402.748 301.562 402.484C301.401 402.22 301.32 401.912 301.32 401.56C301.32 400.797 301.679 400.233 302.398 399.866C303.117 399.485 304.085 399.294 305.302 399.294ZM320.294 406.312C320.294 405.021 320.103 404.024 319.722 403.32C319.355 402.616 318.827 402.264 318.138 402.264C317.449 402.264 316.921 402.616 316.554 403.32C316.202 404.024 316.026 405.021 316.026 406.312C316.026 407.603 316.202 408.607 316.554 409.326C316.921 410.03 317.449 410.382 318.138 410.382C318.827 410.382 319.355 410.03 319.722 409.326C320.103 408.607 320.294 407.603 320.294 406.312ZM324.056 406.312C324.056 407.441 323.909 408.446 323.616 409.326C323.323 410.206 322.912 410.947 322.384 411.548C321.871 412.135 321.247 412.582 320.514 412.89C319.795 413.198 319.011 413.352 318.16 413.352C317.295 413.352 316.495 413.198 315.762 412.89C315.043 412.582 314.42 412.135 313.892 411.548C313.379 410.947 312.975 410.206 312.682 409.326C312.403 408.446 312.264 407.441 312.264 406.312C312.264 405.183 312.403 404.185 312.682 403.32C312.975 402.44 313.379 401.707 313.892 401.12C314.42 400.519 315.043 400.064 315.762 399.756C316.495 399.448 317.295 399.294 318.16 399.294C319.011 399.294 319.795 399.448 320.514 399.756C321.247 400.064 321.871 400.519 322.384 401.12C322.912 401.707 323.323 402.44 323.616 403.32C323.909 404.185 324.056 405.183 324.056 406.312Z" fill="white"/>
<path id="30" d="M413.126 399.294C414.813 399.294 416.096 399.646 416.976 400.35C417.856 401.039 418.296 401.971 418.296 403.144C418.296 403.848 418.105 404.449 417.724 404.948C417.357 405.432 416.917 405.799 416.404 406.048C416.712 406.165 416.998 406.312 417.262 406.488C417.526 406.664 417.761 406.884 417.966 407.148C418.171 407.412 418.333 407.72 418.45 408.072C418.567 408.424 418.626 408.835 418.626 409.304C418.626 409.935 418.487 410.499 418.208 410.998C417.944 411.497 417.57 411.922 417.086 412.274C416.602 412.626 416.023 412.89 415.348 413.066C414.688 413.257 413.962 413.352 413.17 413.352C411.645 413.352 410.493 413.139 409.716 412.714C408.939 412.289 408.55 411.746 408.55 411.086C408.55 410.69 408.645 410.353 408.836 410.074C409.027 409.781 409.261 409.553 409.54 409.392C409.833 409.597 410.222 409.817 410.706 410.052C411.205 410.272 411.85 410.382 412.642 410.382C413.39 410.382 413.94 410.25 414.292 409.986C414.659 409.722 414.842 409.377 414.842 408.952C414.842 408.527 414.695 408.204 414.402 407.984C414.123 407.764 413.632 407.654 412.928 407.654H410.86C410.757 407.493 410.669 407.295 410.596 407.06C410.523 406.825 410.486 406.547 410.486 406.224C410.486 405.887 410.515 405.601 410.574 405.366C410.647 405.117 410.743 404.911 410.86 404.75H412.928C413.984 404.75 414.512 404.347 414.512 403.54C414.512 403.159 414.343 402.851 414.006 402.616C413.669 402.381 413.163 402.264 412.488 402.264C411.887 402.264 411.359 402.337 410.904 402.484C410.449 402.616 410.075 402.785 409.782 402.99C409.533 402.814 409.327 402.601 409.166 402.352C409.005 402.088 408.924 401.78 408.924 401.428C408.924 400.695 409.305 400.159 410.068 399.822C410.831 399.47 411.85 399.294 413.126 399.294ZM428.187 406.312C428.187 405.021 427.996 404.024 427.615 403.32C427.248 402.616 426.72 402.264 426.031 402.264C425.341 402.264 424.813 402.616 424.447 403.32C424.095 404.024 423.919 405.021 423.919 406.312C423.919 407.603 424.095 408.607 424.447 409.326C424.813 410.03 425.341 410.382 426.031 410.382C426.72 410.382 427.248 410.03 427.615 409.326C427.996 408.607 428.187 407.603 428.187 406.312ZM431.949 406.312C431.949 407.441 431.802 408.446 431.509 409.326C431.215 410.206 430.805 410.947 430.277 411.548C429.763 412.135 429.14 412.582 428.407 412.89C427.688 413.198 426.903 413.352 426.053 413.352C425.187 413.352 424.388 413.198 423.655 412.89C422.936 412.582 422.313 412.135 421.785 411.548C421.271 410.947 420.868 410.206 420.575 409.326C420.296 408.446 420.157 407.441 420.157 406.312C420.157 405.183 420.296 404.185 420.575 403.32C420.868 402.44 421.271 401.707 421.785 401.12C422.313 400.519 422.936 400.064 423.655 399.756C424.388 399.448 425.187 399.294 426.053 399.294C426.903 399.294 427.688 399.448 428.407 399.756C429.14 400.064 429.763 400.519 430.277 401.12C430.805 401.707 431.215 402.44 431.509 403.32C431.802 404.185 431.949 405.183 431.949 406.312Z" fill="white"/>
<path id="40" d="M522.292 399.778C522.571 399.69 522.886 399.617 523.238 399.558C523.605 399.499 523.935 399.47 524.228 399.47C524.565 399.47 524.888 399.507 525.196 399.58C525.519 399.639 525.805 399.749 526.054 399.91C526.303 400.057 526.501 400.262 526.648 400.526C526.795 400.79 526.868 401.12 526.868 401.516V407.368H528.826C528.914 407.529 529.002 407.742 529.09 408.006C529.178 408.27 529.222 408.549 529.222 408.842C529.222 409.399 529.097 409.795 528.848 410.03C528.599 410.265 528.283 410.382 527.902 410.382H526.868V412.978C526.707 413.007 526.465 413.044 526.142 413.088C525.819 413.147 525.511 413.176 525.218 413.176C524.895 413.176 524.609 413.161 524.36 413.132C524.111 413.103 523.898 413.037 523.722 412.934C523.561 412.817 523.436 412.655 523.348 412.45C523.26 412.245 523.216 411.966 523.216 411.614V410.382H517.694C517.357 410.206 517.063 409.949 516.814 409.612C516.579 409.26 516.462 408.835 516.462 408.336C516.462 408.057 516.499 407.749 516.572 407.412C516.645 407.075 516.77 406.781 516.946 406.532L522.292 399.778ZM523.414 403.232H523.348L520.422 407.368H523.414V403.232ZM538.357 406.312C538.357 405.021 538.166 404.024 537.785 403.32C537.418 402.616 536.89 402.264 536.201 402.264C535.511 402.264 534.983 402.616 534.617 403.32C534.265 404.024 534.089 405.021 534.089 406.312C534.089 407.603 534.265 408.607 534.617 409.326C534.983 410.03 535.511 410.382 536.201 410.382C536.89 410.382 537.418 410.03 537.785 409.326C538.166 408.607 538.357 407.603 538.357 406.312ZM542.119 406.312C542.119 407.441 541.972 408.446 541.679 409.326C541.385 410.206 540.975 410.947 540.447 411.548C539.933 412.135 539.31 412.582 538.577 412.89C537.858 413.198 537.073 413.352 536.223 413.352C535.357 413.352 534.558 413.198 533.825 412.89C533.106 412.582 532.483 412.135 531.955 411.548C531.441 410.947 531.038 410.206 530.745 409.326C530.466 408.446 530.327 407.441 530.327 406.312C530.327 405.183 530.466 404.185 530.745 403.32C531.038 402.44 531.441 401.707 531.955 401.12C532.483 400.519 533.106 400.064 533.825 399.756C534.558 399.448 535.357 399.294 536.223 399.294C537.073 399.294 537.858 399.448 538.577 399.756C539.31 400.064 539.933 400.519 540.447 401.12C540.975 401.707 541.385 402.44 541.679 403.32C541.972 404.185 542.119 405.183 542.119 406.312Z" fill="white"/>
<path id="50" d="M629.5 413.352C628.825 413.352 628.209 413.301 627.652 413.198C627.109 413.095 626.64 412.941 626.244 412.736C625.848 412.531 625.54 412.281 625.32 411.988C625.1 411.68 624.99 411.328 624.99 410.932C624.99 410.521 625.107 410.177 625.342 409.898C625.577 409.619 625.841 409.399 626.134 409.238C626.545 409.546 626.985 409.817 627.454 410.052C627.923 410.272 628.517 410.382 629.236 410.382C629.925 410.382 630.417 410.228 630.71 409.92C631.003 409.612 631.15 409.238 631.15 408.798C631.15 408.373 631.018 408.021 630.754 407.742C630.505 407.463 630.065 407.324 629.434 407.324C629.038 407.324 628.708 407.368 628.444 407.456C628.18 407.544 627.879 407.669 627.542 407.83C626.823 407.801 626.251 407.61 625.826 407.258C625.415 406.891 625.21 406.334 625.21 405.586C625.21 405.542 625.21 405.491 625.21 405.432C625.21 405.359 625.217 405.219 625.232 405.014L625.496 401.67C625.54 401.039 625.738 400.541 626.09 400.174C626.442 399.807 626.933 399.624 627.564 399.624H633.9C633.988 399.785 634.076 399.998 634.164 400.262C634.252 400.526 634.296 400.805 634.296 401.098C634.296 401.655 634.171 402.051 633.922 402.286C633.673 402.521 633.357 402.638 632.976 402.638H628.752L628.598 404.706C628.877 404.633 629.155 404.567 629.434 404.508C629.727 404.449 630.094 404.42 630.534 404.42C631.297 404.42 631.957 404.537 632.514 404.772C633.071 404.992 633.526 405.3 633.878 405.696C634.245 406.092 634.509 406.554 634.67 407.082C634.846 407.61 634.934 408.175 634.934 408.776C634.934 409.377 634.831 409.957 634.626 410.514C634.421 411.071 634.098 411.563 633.658 411.988C633.218 412.399 632.653 412.729 631.964 412.978C631.289 413.227 630.468 413.352 629.5 413.352ZM644.402 406.312C644.402 405.021 644.211 404.024 643.83 403.32C643.463 402.616 642.935 402.264 642.246 402.264C641.556 402.264 641.028 402.616 640.662 403.32C640.31 404.024 640.134 405.021 640.134 406.312C640.134 407.603 640.31 408.607 640.662 409.326C641.028 410.03 641.556 410.382 642.246 410.382C642.935 410.382 643.463 410.03 643.83 409.326C644.211 408.607 644.402 407.603 644.402 406.312ZM648.164 406.312C648.164 407.441 648.017 408.446 647.724 409.326C647.43 410.206 647.02 410.947 646.492 411.548C645.978 412.135 645.355 412.582 644.622 412.89C643.903 413.198 643.118 413.352 642.268 413.352C641.402 413.352 640.603 413.198 639.87 412.89C639.151 412.582 638.528 412.135 638 411.548C637.486 410.947 637.083 410.206 636.79 409.326C636.511 408.446 636.372 407.441 636.372 406.312C636.372 405.183 636.511 404.185 636.79 403.32C637.083 402.44 637.486 401.707 638 401.12C638.528 400.519 639.151 400.064 639.87 399.756C640.603 399.448 641.402 399.294 642.268 399.294C643.118 399.294 643.903 399.448 644.622 399.756C645.355 400.064 645.978 400.519 646.492 401.12C647.02 401.707 647.43 402.44 647.724 403.32C648.017 404.185 648.164 405.183 648.164 406.312Z" fill="white"/>
<path id="60" d="M742.626 401.252C742.626 401.56 742.553 401.861 742.406 402.154C742.274 402.433 742.113 402.645 741.922 402.792C741.526 402.616 741.108 402.484 740.668 402.396C740.243 402.293 739.847 402.242 739.48 402.242C738.6 402.242 737.918 402.477 737.434 402.946C736.965 403.401 736.649 404.061 736.488 404.926C736.781 404.721 737.17 404.537 737.654 404.376C738.138 404.2 738.637 404.112 739.15 404.112C740.499 404.112 741.57 404.501 742.362 405.278C743.169 406.055 743.572 407.17 743.572 408.622C743.572 409.253 743.462 409.854 743.242 410.426C743.022 410.998 742.692 411.504 742.252 411.944C741.812 412.369 741.262 412.714 740.602 412.978C739.957 413.227 739.201 413.352 738.336 413.352C736.605 413.352 735.241 412.773 734.244 411.614C733.261 410.455 732.77 408.805 732.77 406.664C732.77 405.447 732.917 404.376 733.21 403.452C733.518 402.528 733.943 401.758 734.486 401.142C735.043 400.526 735.703 400.064 736.466 399.756C737.229 399.448 738.072 399.294 738.996 399.294C740.169 399.294 741.064 399.455 741.68 399.778C742.311 400.101 742.626 400.592 742.626 401.252ZM738.314 406.972C738.035 406.972 737.735 407.031 737.412 407.148C737.104 407.265 736.855 407.427 736.664 407.632V408.182C736.664 408.974 736.825 409.539 737.148 409.876C737.485 410.213 737.889 410.382 738.358 410.382C738.842 410.382 739.201 410.221 739.436 409.898C739.685 409.575 739.81 409.157 739.81 408.644C739.81 408.131 739.678 407.727 739.414 407.434C739.165 407.126 738.798 406.972 738.314 406.972ZM753.068 406.312C753.068 405.021 752.877 404.024 752.496 403.32C752.129 402.616 751.601 402.264 750.912 402.264C750.222 402.264 749.694 402.616 749.328 403.32C748.976 404.024 748.8 405.021 748.8 406.312C748.8 407.603 748.976 408.607 749.328 409.326C749.694 410.03 750.222 410.382 750.912 410.382C751.601 410.382 752.129 410.03 752.496 409.326C752.877 408.607 753.068 407.603 753.068 406.312ZM756.83 406.312C756.83 407.441 756.683 408.446 756.39 409.326C756.096 410.206 755.686 410.947 755.158 411.548C754.644 412.135 754.021 412.582 753.288 412.89C752.569 413.198 751.784 413.352 750.934 413.352C750.068 413.352 749.269 413.198 748.536 412.89C747.817 412.582 747.194 412.135 746.666 411.548C746.152 410.947 745.749 410.206 745.456 409.326C745.177 408.446 745.038 407.441 745.038 406.312C745.038 405.183 745.177 404.185 745.456 403.32C745.749 402.44 746.152 401.707 746.666 401.12C747.194 400.519 747.817 400.064 748.536 399.756C749.269 399.448 750.068 399.294 750.934 399.294C751.784 399.294 752.569 399.448 753.288 399.756C754.021 400.064 754.644 400.519 755.158 401.12C755.686 401.707 756.096 402.44 756.39 403.32C756.683 404.185 756.83 405.183 756.83 406.312Z" fill="white"/>
<path id="70" d="M849.416 399.624C849.665 399.785 849.885 400.013 850.076 400.306C850.281 400.585 850.384 400.937 850.384 401.362C850.384 401.597 850.362 401.839 850.318 402.088C850.274 402.323 850.201 402.557 850.098 402.792L845.522 413.154C845.317 413.169 845.119 413.176 844.928 413.176C844.752 413.176 844.583 413.176 844.422 413.176C843.762 413.176 843.227 413.051 842.816 412.802C842.405 412.553 842.2 412.12 842.2 411.504C842.2 411.196 842.273 410.866 842.42 410.514C842.567 410.147 842.765 409.715 843.014 409.216L846.226 402.638H840.836C840.748 402.477 840.66 402.264 840.572 402C840.484 401.736 840.44 401.457 840.44 401.164C840.44 400.607 840.565 400.211 840.814 399.976C841.063 399.741 841.379 399.624 841.76 399.624H849.416ZM859.478 406.312C859.478 405.021 859.287 404.024 858.906 403.32C858.539 402.616 858.011 402.264 857.322 402.264C856.632 402.264 856.104 402.616 855.738 403.32C855.386 404.024 855.21 405.021 855.21 406.312C855.21 407.603 855.386 408.607 855.738 409.326C856.104 410.03 856.632 410.382 857.322 410.382C858.011 410.382 858.539 410.03 858.906 409.326C859.287 408.607 859.478 407.603 859.478 406.312ZM863.24 406.312C863.24 407.441 863.093 408.446 862.8 409.326C862.506 410.206 862.096 410.947 861.568 411.548C861.054 412.135 860.431 412.582 859.698 412.89C858.979 413.198 858.194 413.352 857.344 413.352C856.478 413.352 855.679 413.198 854.946 412.89C854.227 412.582 853.604 412.135 853.076 411.548C852.562 410.947 852.159 410.206 851.866 409.326C851.587 408.446 851.448 407.441 851.448 406.312C851.448 405.183 851.587 404.185 851.866 403.32C852.159 402.44 852.562 401.707 853.076 401.12C853.604 400.519 854.227 400.064 854.946 399.756C855.679 399.448 856.478 399.294 857.344 399.294C858.194 399.294 858.979 399.448 859.698 399.756C860.431 400.064 861.054 400.519 861.568 401.12C862.096 401.707 862.506 402.44 862.8 403.32C863.093 404.185 863.24 405.183 863.24 406.312Z" fill="white"/>
<path id="80" d="M949.1 403.232C949.1 402.645 949.225 402.11 949.474 401.626C949.723 401.142 950.068 400.724 950.508 400.372C950.948 400.02 951.476 399.749 952.092 399.558C952.708 399.367 953.383 399.272 954.116 399.272C954.849 399.272 955.524 399.36 956.14 399.536C956.756 399.712 957.284 399.961 957.724 400.284C958.164 400.607 958.509 401.003 958.758 401.472C959.007 401.941 959.132 402.469 959.132 403.056C959.132 403.701 959 404.266 958.736 404.75C958.472 405.234 958.105 405.637 957.636 405.96C958.193 406.341 958.648 406.796 959 407.324C959.352 407.837 959.528 408.534 959.528 409.414C959.528 410.001 959.403 410.536 959.154 411.02C958.905 411.504 958.545 411.922 958.076 412.274C957.607 412.626 957.042 412.897 956.382 413.088C955.722 413.279 954.981 413.374 954.16 413.374C953.339 413.374 952.598 413.279 951.938 413.088C951.278 412.897 950.713 412.626 950.244 412.274C949.789 411.922 949.43 411.504 949.166 411.02C948.917 410.536 948.792 410.001 948.792 409.414C948.792 408.622 948.961 407.962 949.298 407.434C949.65 406.906 950.061 406.495 950.53 406.202C950.134 405.879 949.797 405.498 949.518 405.058C949.239 404.603 949.1 403.995 949.1 403.232ZM952.554 409.084C952.554 409.539 952.701 409.898 952.994 410.162C953.302 410.426 953.691 410.558 954.16 410.558C954.629 410.558 955.011 410.426 955.304 410.162C955.612 409.883 955.766 409.524 955.766 409.084C955.766 408.659 955.634 408.307 955.37 408.028C955.121 407.735 954.776 407.507 954.336 407.346C953.691 407.493 953.229 407.72 952.95 408.028C952.686 408.321 952.554 408.673 952.554 409.084ZM955.458 403.364C955.458 402.968 955.341 402.653 955.106 402.418C954.871 402.183 954.541 402.066 954.116 402.066C953.691 402.066 953.361 402.183 953.126 402.418C952.891 402.653 952.774 402.961 952.774 403.342C952.774 403.723 952.891 404.031 953.126 404.266C953.375 404.501 953.661 404.691 953.984 404.838C954.497 404.721 954.871 404.53 955.106 404.266C955.341 404.002 955.458 403.701 955.458 403.364ZM969.111 406.312C969.111 405.021 968.92 404.024 968.539 403.32C968.172 402.616 967.644 402.264 966.955 402.264C966.265 402.264 965.737 402.616 965.371 403.32C965.019 404.024 964.843 405.021 964.843 406.312C964.843 407.603 965.019 408.607 965.371 409.326C965.737 410.03 966.265 410.382 966.955 410.382C967.644 410.382 968.172 410.03 968.539 409.326C968.92 408.607 969.111 407.603 969.111 406.312ZM972.873 406.312C972.873 407.441 972.726 408.446 972.433 409.326C972.139 410.206 971.729 410.947 971.201 411.548C970.687 412.135 970.064 412.582 969.331 412.89C968.612 413.198 967.827 413.352 966.977 413.352C966.111 413.352 965.312 413.198 964.579 412.89C963.86 412.582 963.237 412.135 962.709 411.548C962.195 410.947 961.792 410.206 961.499 409.326C961.22 408.446 961.081 407.441 961.081 406.312C961.081 405.183 961.22 404.185 961.499 403.32C961.792 402.44 962.195 401.707 962.709 401.12C963.237 400.519 963.86 400.064 964.579 399.756C965.312 399.448 966.111 399.294 966.977 399.294C967.827 399.294 968.612 399.448 969.331 399.756C970.064 400.064 970.687 400.519 971.201 401.12C971.729 401.707 972.139 402.44 972.433 403.32C972.726 404.185 972.873 405.183 972.873 406.312Z" fill="white"/>
<path id="90" d="M1060.66 410.404C1061.6 410.404 1062.35 410.162 1062.91 409.678C1063.48 409.194 1063.77 408.527 1063.77 407.676C1063.6 407.808 1063.3 407.962 1062.86 408.138C1062.44 408.314 1061.89 408.402 1061.21 408.402C1060.54 408.402 1059.92 408.307 1059.37 408.116C1058.82 407.925 1058.35 407.647 1057.96 407.28C1057.56 406.899 1057.25 406.437 1057.03 405.894C1056.81 405.351 1056.7 404.721 1056.7 404.002C1056.7 403.371 1056.81 402.777 1057.03 402.22C1057.25 401.648 1057.58 401.149 1058.02 400.724C1058.46 400.284 1059.01 399.939 1059.65 399.69C1060.31 399.426 1061.07 399.294 1061.94 399.294C1063.67 399.294 1065.03 399.873 1066.01 401.032C1067.01 402.191 1067.51 403.841 1067.51 405.982C1067.51 407.199 1067.35 408.27 1067.04 409.194C1066.74 410.118 1066.3 410.888 1065.75 411.504C1065.2 412.12 1064.55 412.582 1063.79 412.89C1063.03 413.198 1062.18 413.352 1061.26 413.352C1060.08 413.352 1059.17 413.191 1058.51 412.868C1057.85 412.545 1057.52 412.054 1057.52 411.394C1057.52 411.086 1057.58 410.793 1057.72 410.514C1057.86 410.221 1058.03 410.001 1058.22 409.854C1058.62 410.03 1059.03 410.169 1059.45 410.272C1059.89 410.36 1060.3 410.404 1060.66 410.404ZM1062.07 405.586C1062.35 405.586 1062.63 405.527 1062.91 405.41C1063.2 405.293 1063.44 405.131 1063.63 404.926V404.662C1063.62 403.826 1063.47 403.217 1063.19 402.836C1062.92 402.455 1062.5 402.264 1061.96 402.264C1061.48 402.264 1061.1 402.418 1060.82 402.726C1060.55 403.019 1060.42 403.423 1060.42 403.936C1060.42 404.435 1060.58 404.838 1060.88 405.146C1061.19 405.439 1061.59 405.586 1062.07 405.586ZM1077.07 406.312C1077.07 405.021 1076.88 404.024 1076.5 403.32C1076.13 402.616 1075.6 402.264 1074.91 402.264C1074.22 402.264 1073.69 402.616 1073.33 403.32C1072.98 404.024 1072.8 405.021 1072.8 406.312C1072.8 407.603 1072.98 408.607 1073.33 409.326C1073.69 410.03 1074.22 410.382 1074.91 410.382C1075.6 410.382 1076.13 410.03 1076.5 409.326C1076.88 408.607 1077.07 407.603 1077.07 406.312ZM1080.83 406.312C1080.83 407.441 1080.68 408.446 1080.39 409.326C1080.1 410.206 1079.69 410.947 1079.16 411.548C1078.64 412.135 1078.02 412.582 1077.29 412.89C1076.57 413.198 1075.78 413.352 1074.93 413.352C1074.07 413.352 1073.27 413.198 1072.54 412.89C1071.82 412.582 1071.19 412.135 1070.67 411.548C1070.15 410.947 1069.75 410.206 1069.46 409.326C1069.18 408.446 1069.04 407.441 1069.04 406.312C1069.04 405.183 1069.18 404.185 1069.46 403.32C1069.75 402.44 1070.15 401.707 1070.67 401.12C1071.19 400.519 1071.82 400.064 1072.54 399.756C1073.27 399.448 1074.07 399.294 1074.93 399.294C1075.78 399.294 1076.57 399.448 1077.29 399.756C1078.02 400.064 1078.64 400.519 1079.16 401.12C1079.69 401.707 1080.1 402.44 1080.39 403.32C1080.68 404.185 1080.83 405.183 1080.83 406.312Z" fill="white"/>
<path id="100" d="M1167.41 403.188L1165.21 403.87C1164.99 403.723 1164.77 403.518 1164.55 403.254C1164.33 402.99 1164.22 402.623 1164.22 402.154C1164.22 401.274 1164.76 400.658 1165.83 400.306L1168.29 399.47H1169.1C1169.73 399.47 1170.23 399.653 1170.6 400.02C1170.97 400.387 1171.15 400.885 1171.15 401.516V412.978C1170.99 413.007 1170.75 413.044 1170.42 413.088C1170.12 413.147 1169.8 413.176 1169.48 413.176C1169.16 413.176 1168.86 413.154 1168.6 413.11C1168.35 413.066 1168.14 412.978 1167.96 412.846C1167.78 412.714 1167.64 412.538 1167.54 412.318C1167.45 412.083 1167.41 411.783 1167.41 411.416V403.188ZM1181.44 406.312C1181.44 405.021 1181.25 404.024 1180.86 403.32C1180.5 402.616 1179.97 402.264 1179.28 402.264C1178.59 402.264 1178.06 402.616 1177.7 403.32C1177.34 404.024 1177.17 405.021 1177.17 406.312C1177.17 407.603 1177.34 408.607 1177.7 409.326C1178.06 410.03 1178.59 410.382 1179.28 410.382C1179.97 410.382 1180.5 410.03 1180.86 409.326C1181.25 408.607 1181.44 407.603 1181.44 406.312ZM1185.2 406.312C1185.2 407.441 1185.05 408.446 1184.76 409.326C1184.47 410.206 1184.05 410.947 1183.53 411.548C1183.01 412.135 1182.39 412.582 1181.66 412.89C1180.94 413.198 1180.15 413.352 1179.3 413.352C1178.44 413.352 1177.64 413.198 1176.9 412.89C1176.19 412.582 1175.56 412.135 1175.03 411.548C1174.52 410.947 1174.12 410.206 1173.82 409.326C1173.55 408.446 1173.41 407.441 1173.41 406.312C1173.41 405.183 1173.55 404.185 1173.82 403.32C1174.12 402.44 1174.52 401.707 1175.03 401.12C1175.56 400.519 1176.19 400.064 1176.9 399.756C1177.64 399.448 1178.44 399.294 1179.3 399.294C1180.15 399.294 1180.94 399.448 1181.66 399.756C1182.39 400.064 1183.01 400.519 1183.53 401.12C1184.05 401.707 1184.47 402.44 1184.76 403.32C1185.05 404.185 1185.2 405.183 1185.2 406.312ZM1194.78 406.312C1194.78 405.021 1194.59 404.024 1194.21 403.32C1193.84 402.616 1193.31 402.264 1192.62 402.264C1191.93 402.264 1191.41 402.616 1191.04 403.32C1190.69 404.024 1190.51 405.021 1190.51 406.312C1190.51 407.603 1190.69 408.607 1191.04 409.326C1191.41 410.03 1191.93 410.382 1192.62 410.382C1193.31 410.382 1193.84 410.03 1194.21 409.326C1194.59 408.607 1194.78 407.603 1194.78 406.312ZM1198.54 406.312C1198.54 407.441 1198.39 408.446 1198.1 409.326C1197.81 410.206 1197.4 410.947 1196.87 411.548C1196.36 412.135 1195.73 412.582 1195 412.89C1194.28 413.198 1193.5 413.352 1192.64 413.352C1191.78 413.352 1190.98 413.198 1190.25 412.89C1189.53 412.582 1188.9 412.135 1188.38 411.548C1187.86 410.947 1187.46 410.206 1187.17 409.326C1186.89 408.446 1186.75 407.441 1186.75 406.312C1186.75 405.183 1186.89 404.185 1187.17 403.32C1187.46 402.44 1187.86 401.707 1188.38 401.12C1188.9 400.519 1189.53 400.064 1190.25 399.756C1190.98 399.448 1191.78 399.294 1192.64 399.294C1193.5 399.294 1194.28 399.448 1195 399.756C1195.73 400.064 1196.36 400.519 1196.87 401.12C1197.4 401.707 1197.81 402.44 1198.1 403.32C1198.39 404.185 1198.54 405.183 1198.54 406.312Z" fill="white"/>
</g>
</g>
<path id="Rectangle 33" d="M1172 296C1186.91 296 1199 308.088 1199 323C1199 337.912 1186.91 350 1172 350L208 350V296L1172 296Z" fill="#B924FF"/>
<path id="Rectangle 33_2" d="M705 83C719.912 83 732 95.0883 732 110C732 124.912 719.912 137 705 137L208 137V83L705 83Z" fill="#07FCC1"/>
<path id="Rectangle 33_3" d="M1094 153C1108.91 153 1121 165.088 1121 180C1121 194.912 1108.91 207 1094 207L205 207V153L1094 153Z" fill="#FF2BAA"/>
<path id="Rectangle 33_4" d="M947 225C961.912 225 974 237.088 974 252C974 266.912 961.912 279 947 279L205 279V225L947 225Z" fill="#3840FF"/>
</g>
<defs>
<linearGradient id="paint0_linear" x1="519" y1="8.68983e-05" x2="507.883" y2="447.923" gradientUnits="userSpaceOnUse">
<stop stop-color="#2E2E2E"/>
<stop offset="1" stop-color="#1F1F1F"/>
</linearGradient>
</defs>
</svg>
