<svg width="1020" height="43" viewBox="0 0 1020 43" fill="none" xmlns="http://www.w3.org/2000/svg">
<path d="M3.41 13.188L1.21 13.87C0.99 13.7233 0.77 13.518 0.55 13.254C0.33 12.99 0.22 12.6233 0.22 12.154C0.22 11.274 0.755333 10.658 1.826 10.306L4.29 9.47H5.104C5.73467 9.47 6.23333 9.65333 6.6 10.02C6.96667 10.3867 7.15 10.8853 7.15 11.516V22.978C6.98867 23.0073 6.74667 23.044 6.424 23.088C6.116 23.1467 5.80067 23.176 5.478 23.176C5.15533 23.176 4.862 23.154 4.598 23.11C4.34867 23.066 4.136 22.978 3.96 22.846C3.784 22.714 3.64467 22.538 3.542 22.318C3.454 22.0833 3.41 21.7827 3.41 21.416V13.188ZM17.4367 16.312C17.4367 15.0213 17.2461 14.024 16.8647 13.32C16.4981 12.616 15.9701 12.264 15.2807 12.264C14.5914 12.264 14.0634 12.616 13.6967 13.32C13.3447 14.024 13.1687 15.0213 13.1687 16.312C13.1687 17.6027 13.3447 18.6073 13.6967 19.326C14.0634 20.03 14.5914 20.382 15.2807 20.382C15.9701 20.382 16.4981 20.03 16.8647 19.326C17.2461 18.6073 17.4367 17.6027 17.4367 16.312ZM21.1987 16.312C21.1987 17.4413 21.0521 18.446 20.7587 19.326C20.4654 20.206 20.0547 20.9467 19.5267 21.548C19.0134 22.1347 18.3901 22.582 17.6567 22.89C16.9381 23.198 16.1534 23.352 15.3027 23.352C14.4374 23.352 13.6381 23.198 12.9047 22.89C12.1861 22.582 11.5627 22.1347 11.0347 21.548C10.5214 20.9467 10.1181 20.206 9.82472 19.326C9.54605 18.446 9.40672 17.4413 9.40672 16.312C9.40672 15.1827 9.54605 14.1853 9.82472 13.32C10.1181 12.44 10.5214 11.7067 11.0347 11.12C11.5627 10.5187 12.1861 10.064 12.9047 9.756C13.6381 9.448 14.4374 9.294 15.3027 9.294C16.1534 9.294 16.9381 9.448 17.6567 9.756C18.3901 10.064 19.0134 10.5187 19.5267 11.12C20.0547 11.7067 20.4654 12.44 20.7587 13.32C21.0521 14.1853 21.1987 15.1827 21.1987 16.312Z" fill="white"/>
<path d="M113.302 9.294C114.138 9.294 114.879 9.404 115.524 9.624C116.169 9.82933 116.719 10.1153 117.174 10.482C117.629 10.8487 117.973 11.2813 118.208 11.78C118.443 12.2787 118.56 12.814 118.56 13.386C118.56 14.926 117.687 16.3927 115.942 17.786L113.06 20.096H118.34C118.428 20.2573 118.509 20.4627 118.582 20.712C118.67 20.9613 118.714 21.2327 118.714 21.526C118.714 22.054 118.597 22.4353 118.362 22.67C118.127 22.89 117.819 23 117.438 23H109.804C109.481 22.78 109.225 22.5013 109.034 22.164C108.858 21.812 108.77 21.4013 108.77 20.932C108.77 20.4333 108.873 20.0153 109.078 19.678C109.283 19.326 109.511 19.0473 109.76 18.842L112.796 16.246C113.177 15.9233 113.493 15.6373 113.742 15.388C113.991 15.124 114.189 14.8893 114.336 14.684C114.497 14.4787 114.607 14.288 114.666 14.112C114.739 13.936 114.776 13.7673 114.776 13.606C114.776 13.1953 114.593 12.8727 114.226 12.638C113.874 12.4033 113.434 12.286 112.906 12.286C112.319 12.286 111.791 12.3813 111.322 12.572C110.867 12.748 110.486 12.9387 110.178 13.144C109.929 12.968 109.723 12.748 109.562 12.484C109.401 12.22 109.32 11.912 109.32 11.56C109.32 10.7973 109.679 10.2327 110.398 9.866C111.117 9.48467 112.085 9.294 113.302 9.294ZM128.294 16.312C128.294 15.0213 128.103 14.024 127.722 13.32C127.355 12.616 126.827 12.264 126.138 12.264C125.449 12.264 124.921 12.616 124.554 13.32C124.202 14.024 124.026 15.0213 124.026 16.312C124.026 17.6027 124.202 18.6073 124.554 19.326C124.921 20.03 125.449 20.382 126.138 20.382C126.827 20.382 127.355 20.03 127.722 19.326C128.103 18.6073 128.294 17.6027 128.294 16.312ZM132.056 16.312C132.056 17.4413 131.909 18.446 131.616 19.326C131.323 20.206 130.912 20.9467 130.384 21.548C129.871 22.1347 129.247 22.582 128.514 22.89C127.795 23.198 127.011 23.352 126.16 23.352C125.295 23.352 124.495 23.198 123.762 22.89C123.043 22.582 122.42 22.1347 121.892 21.548C121.379 20.9467 120.975 20.206 120.682 19.326C120.403 18.446 120.264 17.4413 120.264 16.312C120.264 15.1827 120.403 14.1853 120.682 13.32C120.975 12.44 121.379 11.7067 121.892 11.12C122.42 10.5187 123.043 10.064 123.762 9.756C124.495 9.448 125.295 9.294 126.16 9.294C127.011 9.294 127.795 9.448 128.514 9.756C129.247 10.064 129.871 10.5187 130.384 11.12C130.912 11.7067 131.323 12.44 131.616 13.32C131.909 14.1853 132.056 15.1827 132.056 16.312Z" fill="white"/>
<path d="M221.126 9.294C222.813 9.294 224.096 9.646 224.976 10.35C225.856 11.0393 226.296 11.9707 226.296 13.144C226.296 13.848 226.105 14.4493 225.724 14.948C225.357 15.432 224.917 15.7987 224.404 16.048C224.712 16.1653 224.998 16.312 225.262 16.488C225.526 16.664 225.761 16.884 225.966 17.148C226.171 17.412 226.333 17.72 226.45 18.072C226.567 18.424 226.626 18.8347 226.626 19.304C226.626 19.9347 226.487 20.4993 226.208 20.998C225.944 21.4967 225.57 21.922 225.086 22.274C224.602 22.626 224.023 22.89 223.348 23.066C222.688 23.2567 221.962 23.352 221.17 23.352C219.645 23.352 218.493 23.1393 217.716 22.714C216.939 22.2887 216.55 21.746 216.55 21.086C216.55 20.69 216.645 20.3527 216.836 20.074C217.027 19.7807 217.261 19.5533 217.54 19.392C217.833 19.5973 218.222 19.8173 218.706 20.052C219.205 20.272 219.85 20.382 220.642 20.382C221.39 20.382 221.94 20.25 222.292 19.986C222.659 19.722 222.842 19.3773 222.842 18.952C222.842 18.5267 222.695 18.204 222.402 17.984C222.123 17.764 221.632 17.654 220.928 17.654H218.86C218.757 17.4927 218.669 17.2947 218.596 17.06C218.523 16.8253 218.486 16.5467 218.486 16.224C218.486 15.8867 218.515 15.6007 218.574 15.366C218.647 15.1167 218.743 14.9113 218.86 14.75H220.928C221.984 14.75 222.512 14.3467 222.512 13.54C222.512 13.1587 222.343 12.8507 222.006 12.616C221.669 12.3813 221.163 12.264 220.488 12.264C219.887 12.264 219.359 12.3373 218.904 12.484C218.449 12.616 218.075 12.7847 217.782 12.99C217.533 12.814 217.327 12.6013 217.166 12.352C217.005 12.088 216.924 11.78 216.924 11.428C216.924 10.6947 217.305 10.1593 218.068 9.822C218.831 9.47 219.85 9.294 221.126 9.294ZM236.187 16.312C236.187 15.0213 235.996 14.024 235.615 13.32C235.248 12.616 234.72 12.264 234.031 12.264C233.341 12.264 232.813 12.616 232.447 13.32C232.095 14.024 231.919 15.0213 231.919 16.312C231.919 17.6027 232.095 18.6073 232.447 19.326C232.813 20.03 233.341 20.382 234.031 20.382C234.72 20.382 235.248 20.03 235.615 19.326C235.996 18.6073 236.187 17.6027 236.187 16.312ZM239.949 16.312C239.949 17.4413 239.802 18.446 239.509 19.326C239.215 20.206 238.805 20.9467 238.277 21.548C237.763 22.1347 237.14 22.582 236.407 22.89C235.688 23.198 234.903 23.352 234.053 23.352C233.187 23.352 232.388 23.198 231.655 22.89C230.936 22.582 230.313 22.1347 229.785 21.548C229.271 20.9467 228.868 20.206 228.575 19.326C228.296 18.446 228.157 17.4413 228.157 16.312C228.157 15.1827 228.296 14.1853 228.575 13.32C228.868 12.44 229.271 11.7067 229.785 11.12C230.313 10.5187 230.936 10.064 231.655 9.756C232.388 9.448 233.187 9.294 234.053 9.294C234.903 9.294 235.688 9.448 236.407 9.756C237.14 10.064 237.763 10.5187 238.277 11.12C238.805 11.7067 239.215 12.44 239.509 13.32C239.802 14.1853 239.949 15.1827 239.949 16.312Z" fill="white"/>
<path d="M330.292 9.778C330.571 9.69 330.886 9.61667 331.238 9.558C331.605 9.49933 331.935 9.47 332.228 9.47C332.565 9.47 332.888 9.50667 333.196 9.58C333.519 9.63867 333.805 9.74867 334.054 9.91C334.303 10.0567 334.501 10.262 334.648 10.526C334.795 10.79 334.868 11.12 334.868 11.516V17.368H336.826C336.914 17.5293 337.002 17.742 337.09 18.006C337.178 18.27 337.222 18.5487 337.222 18.842C337.222 19.3993 337.097 19.7953 336.848 20.03C336.599 20.2647 336.283 20.382 335.902 20.382H334.868V22.978C334.707 23.0073 334.465 23.044 334.142 23.088C333.819 23.1467 333.511 23.176 333.218 23.176C332.895 23.176 332.609 23.1613 332.36 23.132C332.111 23.1027 331.898 23.0367 331.722 22.934C331.561 22.8167 331.436 22.6553 331.348 22.45C331.26 22.2447 331.216 21.966 331.216 21.614V20.382H325.694C325.357 20.206 325.063 19.9493 324.814 19.612C324.579 19.26 324.462 18.8347 324.462 18.336C324.462 18.0573 324.499 17.7493 324.572 17.412C324.645 17.0747 324.77 16.7813 324.946 16.532L330.292 9.778ZM331.414 13.232H331.348L328.422 17.368H331.414V13.232ZM346.357 16.312C346.357 15.0213 346.166 14.024 345.785 13.32C345.418 12.616 344.89 12.264 344.201 12.264C343.511 12.264 342.983 12.616 342.617 13.32C342.265 14.024 342.089 15.0213 342.089 16.312C342.089 17.6027 342.265 18.6073 342.617 19.326C342.983 20.03 343.511 20.382 344.201 20.382C344.89 20.382 345.418 20.03 345.785 19.326C346.166 18.6073 346.357 17.6027 346.357 16.312ZM350.119 16.312C350.119 17.4413 349.972 18.446 349.679 19.326C349.385 20.206 348.975 20.9467 348.447 21.548C347.933 22.1347 347.31 22.582 346.577 22.89C345.858 23.198 345.073 23.352 344.223 23.352C343.357 23.352 342.558 23.198 341.825 22.89C341.106 22.582 340.483 22.1347 339.955 21.548C339.441 20.9467 339.038 20.206 338.745 19.326C338.466 18.446 338.327 17.4413 338.327 16.312C338.327 15.1827 338.466 14.1853 338.745 13.32C339.038 12.44 339.441 11.7067 339.955 11.12C340.483 10.5187 341.106 10.064 341.825 9.756C342.558 9.448 343.357 9.294 344.223 9.294C345.073 9.294 345.858 9.448 346.577 9.756C347.31 10.064 347.933 10.5187 348.447 11.12C348.975 11.7067 349.385 12.44 349.679 13.32C349.972 14.1853 350.119 15.1827 350.119 16.312Z" fill="white"/>
<path d="M437.5 23.352C436.825 23.352 436.209 23.3007 435.652 23.198C435.109 23.0953 434.64 22.9413 434.244 22.736C433.848 22.5307 433.54 22.2813 433.32 21.988C433.1 21.68 432.99 21.328 432.99 20.932C432.99 20.5213 433.107 20.1767 433.342 19.898C433.577 19.6193 433.841 19.3993 434.134 19.238C434.545 19.546 434.985 19.8173 435.454 20.052C435.923 20.272 436.517 20.382 437.236 20.382C437.925 20.382 438.417 20.228 438.71 19.92C439.003 19.612 439.15 19.238 439.15 18.798C439.15 18.3727 439.018 18.0207 438.754 17.742C438.505 17.4633 438.065 17.324 437.434 17.324C437.038 17.324 436.708 17.368 436.444 17.456C436.18 17.544 435.879 17.6687 435.542 17.83C434.823 17.8007 434.251 17.61 433.826 17.258C433.415 16.8913 433.21 16.334 433.21 15.586C433.21 15.542 433.21 15.4907 433.21 15.432C433.21 15.3587 433.217 15.2193 433.232 15.014L433.496 11.67C433.54 11.0393 433.738 10.5407 434.09 10.174C434.442 9.80733 434.933 9.624 435.564 9.624H441.9C441.988 9.78533 442.076 9.998 442.164 10.262C442.252 10.526 442.296 10.8047 442.296 11.098C442.296 11.6553 442.171 12.0513 441.922 12.286C441.673 12.5207 441.357 12.638 440.976 12.638H436.752L436.598 14.706C436.877 14.6327 437.155 14.5667 437.434 14.508C437.727 14.4493 438.094 14.42 438.534 14.42C439.297 14.42 439.957 14.5373 440.514 14.772C441.071 14.992 441.526 15.3 441.878 15.696C442.245 16.092 442.509 16.554 442.67 17.082C442.846 17.61 442.934 18.1747 442.934 18.776C442.934 19.3773 442.831 19.9567 442.626 20.514C442.421 21.0713 442.098 21.5627 441.658 21.988C441.218 22.3987 440.653 22.7287 439.964 22.978C439.289 23.2273 438.468 23.352 437.5 23.352ZM452.402 16.312C452.402 15.0213 452.211 14.024 451.83 13.32C451.463 12.616 450.935 12.264 450.246 12.264C449.556 12.264 449.028 12.616 448.662 13.32C448.31 14.024 448.134 15.0213 448.134 16.312C448.134 17.6027 448.31 18.6073 448.662 19.326C449.028 20.03 449.556 20.382 450.246 20.382C450.935 20.382 451.463 20.03 451.83 19.326C452.211 18.6073 452.402 17.6027 452.402 16.312ZM456.164 16.312C456.164 17.4413 456.017 18.446 455.724 19.326C455.43 20.206 455.02 20.9467 454.492 21.548C453.978 22.1347 453.355 22.582 452.622 22.89C451.903 23.198 451.118 23.352 450.268 23.352C449.402 23.352 448.603 23.198 447.87 22.89C447.151 22.582 446.528 22.1347 446 21.548C445.486 20.9467 445.083 20.206 444.79 19.326C444.511 18.446 444.372 17.4413 444.372 16.312C444.372 15.1827 444.511 14.1853 444.79 13.32C445.083 12.44 445.486 11.7067 446 11.12C446.528 10.5187 447.151 10.064 447.87 9.756C448.603 9.448 449.402 9.294 450.268 9.294C451.118 9.294 451.903 9.448 452.622 9.756C453.355 10.064 453.978 10.5187 454.492 11.12C455.02 11.7067 455.43 12.44 455.724 13.32C456.017 14.1853 456.164 15.1827 456.164 16.312Z" fill="white"/>
<path d="M550.626 11.252C550.626 11.56 550.553 11.8607 550.406 12.154C550.274 12.4327 550.113 12.6453 549.922 12.792C549.526 12.616 549.108 12.484 548.668 12.396C548.243 12.2933 547.847 12.242 547.48 12.242C546.6 12.242 545.918 12.4767 545.434 12.946C544.965 13.4007 544.649 14.0607 544.488 14.926C544.781 14.7207 545.17 14.5373 545.654 14.376C546.138 14.2 546.637 14.112 547.15 14.112C548.499 14.112 549.57 14.5007 550.362 15.278C551.169 16.0553 551.572 17.17 551.572 18.622C551.572 19.2527 551.462 19.854 551.242 20.426C551.022 20.998 550.692 21.504 550.252 21.944C549.812 22.3693 549.262 22.714 548.602 22.978C547.957 23.2273 547.201 23.352 546.336 23.352C544.605 23.352 543.241 22.7727 542.244 21.614C541.261 20.4553 540.77 18.8053 540.77 16.664C540.77 15.4467 540.917 14.376 541.21 13.452C541.518 12.528 541.943 11.758 542.486 11.142C543.043 10.526 543.703 10.064 544.466 9.756C545.229 9.448 546.072 9.294 546.996 9.294C548.169 9.294 549.064 9.45533 549.68 9.778C550.311 10.1007 550.626 10.592 550.626 11.252ZM546.314 16.972C546.035 16.972 545.735 17.0307 545.412 17.148C545.104 17.2653 544.855 17.4267 544.664 17.632V18.182C544.664 18.974 544.825 19.5387 545.148 19.876C545.485 20.2133 545.889 20.382 546.358 20.382C546.842 20.382 547.201 20.2207 547.436 19.898C547.685 19.5753 547.81 19.1573 547.81 18.644C547.81 18.1307 547.678 17.7273 547.414 17.434C547.165 17.126 546.798 16.972 546.314 16.972ZM561.068 16.312C561.068 15.0213 560.877 14.024 560.496 13.32C560.129 12.616 559.601 12.264 558.912 12.264C558.222 12.264 557.694 12.616 557.328 13.32C556.976 14.024 556.8 15.0213 556.8 16.312C556.8 17.6027 556.976 18.6073 557.328 19.326C557.694 20.03 558.222 20.382 558.912 20.382C559.601 20.382 560.129 20.03 560.496 19.326C560.877 18.6073 561.068 17.6027 561.068 16.312ZM564.83 16.312C564.83 17.4413 564.683 18.446 564.39 19.326C564.096 20.206 563.686 20.9467 563.158 21.548C562.644 22.1347 562.021 22.582 561.288 22.89C560.569 23.198 559.784 23.352 558.934 23.352C558.068 23.352 557.269 23.198 556.536 22.89C555.817 22.582 555.194 22.1347 554.666 21.548C554.152 20.9467 553.749 20.206 553.456 19.326C553.177 18.446 553.038 17.4413 553.038 16.312C553.038 15.1827 553.177 14.1853 553.456 13.32C553.749 12.44 554.152 11.7067 554.666 11.12C555.194 10.5187 555.817 10.064 556.536 9.756C557.269 9.448 558.068 9.294 558.934 9.294C559.784 9.294 560.569 9.448 561.288 9.756C562.021 10.064 562.644 10.5187 563.158 11.12C563.686 11.7067 564.096 12.44 564.39 13.32C564.683 14.1853 564.83 15.1827 564.83 16.312Z" fill="white"/>
<path d="M657.416 9.624C657.665 9.78533 657.885 10.0127 658.076 10.306C658.281 10.5847 658.384 10.9367 658.384 11.362C658.384 11.5967 658.362 11.8387 658.318 12.088C658.274 12.3227 658.201 12.5573 658.098 12.792L653.522 23.154C653.317 23.1687 653.119 23.176 652.928 23.176C652.752 23.176 652.583 23.176 652.422 23.176C651.762 23.176 651.227 23.0513 650.816 22.802C650.405 22.5527 650.2 22.12 650.2 21.504C650.2 21.196 650.273 20.866 650.42 20.514C650.567 20.1473 650.765 19.7147 651.014 19.216L654.226 12.638H648.836C648.748 12.4767 648.66 12.264 648.572 12C648.484 11.736 648.44 11.4573 648.44 11.164C648.44 10.6067 648.565 10.2107 648.814 9.976C649.063 9.74133 649.379 9.624 649.76 9.624H657.416ZM667.478 16.312C667.478 15.0213 667.287 14.024 666.906 13.32C666.539 12.616 666.011 12.264 665.322 12.264C664.632 12.264 664.104 12.616 663.738 13.32C663.386 14.024 663.21 15.0213 663.21 16.312C663.21 17.6027 663.386 18.6073 663.738 19.326C664.104 20.03 664.632 20.382 665.322 20.382C666.011 20.382 666.539 20.03 666.906 19.326C667.287 18.6073 667.478 17.6027 667.478 16.312ZM671.24 16.312C671.24 17.4413 671.093 18.446 670.8 19.326C670.506 20.206 670.096 20.9467 669.568 21.548C669.054 22.1347 668.431 22.582 667.698 22.89C666.979 23.198 666.194 23.352 665.344 23.352C664.478 23.352 663.679 23.198 662.946 22.89C662.227 22.582 661.604 22.1347 661.076 21.548C660.562 20.9467 660.159 20.206 659.866 19.326C659.587 18.446 659.448 17.4413 659.448 16.312C659.448 15.1827 659.587 14.1853 659.866 13.32C660.159 12.44 660.562 11.7067 661.076 11.12C661.604 10.5187 662.227 10.064 662.946 9.756C663.679 9.448 664.478 9.294 665.344 9.294C666.194 9.294 666.979 9.448 667.698 9.756C668.431 10.064 669.054 10.5187 669.568 11.12C670.096 11.7067 670.506 12.44 670.8 13.32C671.093 14.1853 671.24 15.1827 671.24 16.312Z" fill="white"/>
<path d="M757.1 13.232C757.1 12.6453 757.225 12.11 757.474 11.626C757.723 11.142 758.068 10.724 758.508 10.372C758.948 10.02 759.476 9.74867 760.092 9.558C760.708 9.36733 761.383 9.272 762.116 9.272C762.849 9.272 763.524 9.36 764.14 9.536C764.756 9.712 765.284 9.96133 765.724 10.284C766.164 10.6067 766.509 11.0027 766.758 11.472C767.007 11.9413 767.132 12.4693 767.132 13.056C767.132 13.7013 767 14.266 766.736 14.75C766.472 15.234 766.105 15.6373 765.636 15.96C766.193 16.3413 766.648 16.796 767 17.324C767.352 17.8373 767.528 18.534 767.528 19.414C767.528 20.0007 767.403 20.536 767.154 21.02C766.905 21.504 766.545 21.922 766.076 22.274C765.607 22.626 765.042 22.8973 764.382 23.088C763.722 23.2787 762.981 23.374 762.16 23.374C761.339 23.374 760.598 23.2787 759.938 23.088C759.278 22.8973 758.713 22.626 758.244 22.274C757.789 21.922 757.43 21.504 757.166 21.02C756.917 20.536 756.792 20.0007 756.792 19.414C756.792 18.622 756.961 17.962 757.298 17.434C757.65 16.906 758.061 16.4953 758.53 16.202C758.134 15.8793 757.797 15.498 757.518 15.058C757.239 14.6033 757.1 13.9947 757.1 13.232ZM760.554 19.084C760.554 19.5387 760.701 19.898 760.994 20.162C761.302 20.426 761.691 20.558 762.16 20.558C762.629 20.558 763.011 20.426 763.304 20.162C763.612 19.8833 763.766 19.524 763.766 19.084C763.766 18.6587 763.634 18.3067 763.37 18.028C763.121 17.7347 762.776 17.5073 762.336 17.346C761.691 17.4927 761.229 17.72 760.95 18.028C760.686 18.3213 760.554 18.6733 760.554 19.084ZM763.458 13.364C763.458 12.968 763.341 12.6527 763.106 12.418C762.871 12.1833 762.541 12.066 762.116 12.066C761.691 12.066 761.361 12.1833 761.126 12.418C760.891 12.6527 760.774 12.9607 760.774 13.342C760.774 13.7233 760.891 14.0313 761.126 14.266C761.375 14.5007 761.661 14.6913 761.984 14.838C762.497 14.7207 762.871 14.53 763.106 14.266C763.341 14.002 763.458 13.7013 763.458 13.364ZM777.111 16.312C777.111 15.0213 776.92 14.024 776.539 13.32C776.172 12.616 775.644 12.264 774.955 12.264C774.265 12.264 773.737 12.616 773.371 13.32C773.019 14.024 772.843 15.0213 772.843 16.312C772.843 17.6027 773.019 18.6073 773.371 19.326C773.737 20.03 774.265 20.382 774.955 20.382C775.644 20.382 776.172 20.03 776.539 19.326C776.92 18.6073 777.111 17.6027 777.111 16.312ZM780.873 16.312C780.873 17.4413 780.726 18.446 780.433 19.326C780.139 20.206 779.729 20.9467 779.201 21.548C778.687 22.1347 778.064 22.582 777.331 22.89C776.612 23.198 775.827 23.352 774.977 23.352C774.111 23.352 773.312 23.198 772.579 22.89C771.86 22.582 771.237 22.1347 770.709 21.548C770.195 20.9467 769.792 20.206 769.499 19.326C769.22 18.446 769.081 17.4413 769.081 16.312C769.081 15.1827 769.22 14.1853 769.499 13.32C769.792 12.44 770.195 11.7067 770.709 11.12C771.237 10.5187 771.86 10.064 772.579 9.756C773.312 9.448 774.111 9.294 774.977 9.294C775.827 9.294 776.612 9.448 777.331 9.756C778.064 10.064 778.687 10.5187 779.201 11.12C779.729 11.7067 780.139 12.44 780.433 13.32C780.726 14.1853 780.873 15.1827 780.873 16.312Z" fill="white"/>
<path d="M868.664 20.404C869.603 20.404 870.351 20.162 870.908 19.678C871.48 19.194 871.766 18.5267 871.766 17.676C871.605 17.808 871.304 17.962 870.864 18.138C870.439 18.314 869.889 18.402 869.214 18.402C868.539 18.402 867.923 18.3067 867.366 18.116C866.823 17.9253 866.354 17.6467 865.958 17.28C865.562 16.8987 865.254 16.4367 865.034 15.894C864.814 15.3513 864.704 14.7207 864.704 14.002C864.704 13.3713 864.814 12.7773 865.034 12.22C865.254 11.648 865.584 11.1493 866.024 10.724C866.464 10.284 867.007 9.93933 867.652 9.69C868.312 9.426 869.075 9.294 869.94 9.294C871.671 9.294 873.027 9.87333 874.01 11.032C875.007 12.1907 875.506 13.8407 875.506 15.982C875.506 17.1993 875.352 18.27 875.044 19.194C874.736 20.118 874.303 20.888 873.746 21.504C873.203 22.12 872.551 22.582 871.788 22.89C871.025 23.198 870.182 23.352 869.258 23.352C868.085 23.352 867.168 23.1907 866.508 22.868C865.848 22.5453 865.518 22.054 865.518 21.394C865.518 21.086 865.584 20.7927 865.716 20.514C865.863 20.2207 866.031 20.0007 866.222 19.854C866.618 20.03 867.029 20.1693 867.454 20.272C867.894 20.36 868.297 20.404 868.664 20.404ZM870.072 15.586C870.351 15.586 870.629 15.5273 870.908 15.41C871.201 15.2927 871.443 15.1313 871.634 14.926V14.662C871.619 13.826 871.473 13.2173 871.194 12.836C870.915 12.4547 870.505 12.264 869.962 12.264C869.478 12.264 869.097 12.418 868.818 12.726C868.554 13.0193 868.422 13.4227 868.422 13.936C868.422 14.4347 868.576 14.838 868.884 15.146C869.192 15.4393 869.588 15.586 870.072 15.586ZM885.068 16.312C885.068 15.0213 884.877 14.024 884.496 13.32C884.129 12.616 883.601 12.264 882.912 12.264C882.222 12.264 881.694 12.616 881.328 13.32C880.976 14.024 880.8 15.0213 880.8 16.312C880.8 17.6027 880.976 18.6073 881.328 19.326C881.694 20.03 882.222 20.382 882.912 20.382C883.601 20.382 884.129 20.03 884.496 19.326C884.877 18.6073 885.068 17.6027 885.068 16.312ZM888.83 16.312C888.83 17.4413 888.683 18.446 888.39 19.326C888.096 20.206 887.686 20.9467 887.158 21.548C886.644 22.1347 886.021 22.582 885.288 22.89C884.569 23.198 883.784 23.352 882.934 23.352C882.068 23.352 881.269 23.198 880.536 22.89C879.817 22.582 879.194 22.1347 878.666 21.548C878.152 20.9467 877.749 20.206 877.456 19.326C877.177 18.446 877.038 17.4413 877.038 16.312C877.038 15.1827 877.177 14.1853 877.456 13.32C877.749 12.44 878.152 11.7067 878.666 11.12C879.194 10.5187 879.817 10.064 880.536 9.756C881.269 9.448 882.068 9.294 882.934 9.294C883.784 9.294 884.569 9.448 885.288 9.756C886.021 10.064 886.644 10.5187 887.158 11.12C887.686 11.7067 888.096 12.44 888.39 13.32C888.683 14.1853 888.83 15.1827 888.83 16.312Z" fill="white"/>
<path d="M975.41 13.188L973.21 13.87C972.99 13.7233 972.77 13.518 972.55 13.254C972.33 12.99 972.22 12.6233 972.22 12.154C972.22 11.274 972.755 10.658 973.826 10.306L976.29 9.47H977.104C977.735 9.47 978.233 9.65333 978.6 10.02C978.967 10.3867 979.15 10.8853 979.15 11.516V22.978C978.989 23.0073 978.747 23.044 978.424 23.088C978.116 23.1467 977.801 23.176 977.478 23.176C977.155 23.176 976.862 23.154 976.598 23.11C976.349 23.066 976.136 22.978 975.96 22.846C975.784 22.714 975.645 22.538 975.542 22.318C975.454 22.0833 975.41 21.7827 975.41 21.416V13.188ZM989.437 16.312C989.437 15.0213 989.246 14.024 988.865 13.32C988.498 12.616 987.97 12.264 987.281 12.264C986.591 12.264 986.063 12.616 985.697 13.32C985.345 14.024 985.169 15.0213 985.169 16.312C985.169 17.6027 985.345 18.6073 985.697 19.326C986.063 20.03 986.591 20.382 987.281 20.382C987.97 20.382 988.498 20.03 988.865 19.326C989.246 18.6073 989.437 17.6027 989.437 16.312ZM993.199 16.312C993.199 17.4413 993.052 18.446 992.759 19.326C992.465 20.206 992.055 20.9467 991.527 21.548C991.013 22.1347 990.39 22.582 989.657 22.89C988.938 23.198 988.153 23.352 987.303 23.352C986.437 23.352 985.638 23.198 984.905 22.89C984.186 22.582 983.563 22.1347 983.035 21.548C982.521 20.9467 982.118 20.206 981.825 19.326C981.546 18.446 981.407 17.4413 981.407 16.312C981.407 15.1827 981.546 14.1853 981.825 13.32C982.118 12.44 982.521 11.7067 983.035 11.12C983.563 10.5187 984.186 10.064 984.905 9.756C985.638 9.448 986.437 9.294 987.303 9.294C988.153 9.294 988.938 9.448 989.657 9.756C990.39 10.064 991.013 10.5187 991.527 11.12C992.055 11.7067 992.465 12.44 992.759 13.32C993.052 14.1853 993.199 15.1827 993.199 16.312ZM1002.78 16.312C1002.78 15.0213 1002.59 14.024 1002.21 13.32C1001.84 12.616 1001.31 12.264 1000.62 12.264C999.933 12.264 999.405 12.616 999.039 13.32C998.687 14.024 998.511 15.0213 998.511 16.312C998.511 17.6027 998.687 18.6073 999.039 19.326C999.405 20.03 999.933 20.382 1000.62 20.382C1001.31 20.382 1001.84 20.03 1002.21 19.326C1002.59 18.6073 1002.78 17.6027 1002.78 16.312ZM1006.54 16.312C1006.54 17.4413 1006.39 18.446 1006.1 19.326C1005.81 20.206 1005.4 20.9467 1004.87 21.548C1004.36 22.1347 1003.73 22.582 1003 22.89C1002.28 23.198 1001.5 23.352 1000.64 23.352C999.779 23.352 998.98 23.198 998.247 22.89C997.528 22.582 996.905 22.1347 996.377 21.548C995.863 20.9467 995.46 20.206 995.167 19.326C994.888 18.446 994.749 17.4413 994.749 16.312C994.749 15.1827 994.888 14.1853 995.167 13.32C995.46 12.44 995.863 11.7067 996.377 11.12C996.905 10.5187 997.528 10.064 998.247 9.756C998.98 9.448 999.779 9.294 1000.64 9.294C1001.5 9.294 1002.28 9.448 1003 9.756C1003.73 10.064 1004.36 10.5187 1004.87 11.12C1005.4 11.7067 1005.81 12.44 1006.1 13.32C1006.39 14.1853 1006.54 15.1827 1006.54 16.312Z" fill="white"/>
</svg>
