<svg width="635" height="982" viewBox="0 0 635 982" fill="none" xmlns="http://www.w3.org/2000/svg">
<rect width="635" height="982" rx="30" fill="url(#paint0_linear)"/>
<path d="M61.0286 876.482L58.8267 877.169C58.6071 877.022 58.3877 876.818 58.1684 876.554C57.9491 876.291 57.8402 875.924 57.8415 875.455C57.844 874.575 58.3811 873.958 59.4527 873.603L61.9191 872.762L62.7331 872.761C63.3637 872.759 63.8619 872.942 64.2275 873.307C64.5931 873.673 64.7751 874.172 64.7733 874.802L64.741 886.264C64.5796 886.294 64.3375 886.331 64.0147 886.376C63.7065 886.435 63.3911 886.465 63.0684 886.466C62.7458 886.466 62.4525 886.445 62.1886 886.402C61.9394 886.358 61.727 886.271 61.5514 886.139C61.3757 886.007 61.2369 885.832 61.1349 885.612C61.0475 885.377 61.0044 885.077 61.0054 884.71L61.0286 876.482ZM75.0465 879.577C75.0501 878.286 74.8622 877.289 74.4829 876.586C74.1182 875.883 73.5912 875.532 72.9019 875.533C72.2125 875.535 71.6836 875.888 71.3149 876.593C70.9609 877.297 70.7821 878.295 70.7785 879.586C70.7748 880.876 70.948 881.881 71.298 882.599C71.6627 883.302 72.1897 883.653 72.879 883.651C73.5683 883.65 74.0973 883.297 74.466 882.592C74.8493 881.872 75.0428 880.867 75.0465 879.577ZM78.8085 879.569C78.8053 880.698 78.6558 881.703 78.36 882.584C78.0642 883.464 77.6514 884.206 77.1217 884.808C76.6067 885.396 75.9821 885.845 75.2479 886.154C74.5284 886.464 73.7433 886.619 72.8926 886.621C72.0273 886.623 71.2284 886.471 70.4959 886.164C69.7781 885.858 69.1561 885.412 68.6297 884.826C68.1181 884.226 67.7168 883.486 67.426 882.607C67.1498 881.727 67.0133 880.723 67.0165 879.594C67.0197 878.464 67.1618 877.467 67.4429 876.601C67.7387 875.72 68.1441 874.986 68.6591 874.398C69.1888 873.796 69.8134 873.34 70.533 873.03C71.2672 872.721 72.0669 872.565 72.9323 872.563C73.7829 872.561 74.5671 872.714 75.2849 873.02C76.0174 873.327 76.6395 873.78 77.1511 874.38C77.6774 874.966 78.086 875.698 78.3769 876.578C78.6678 877.443 78.8116 878.44 78.8085 879.569Z" fill="white"/>
<path d="M62.234 786.264C63.07 786.262 63.8104 786.371 64.4551 786.589C65.0999 786.793 65.6491 787.078 66.1027 787.444C66.5563 787.809 66.8998 788.241 67.133 788.74C67.3663 789.238 67.4821 789.773 67.4805 790.345C67.4762 791.885 66.5994 793.353 64.8501 794.75L61.9616 797.066L67.2416 797.055C67.3291 797.216 67.4092 797.422 67.4819 797.671C67.5691 797.92 67.6124 798.191 67.6116 798.484C67.6101 799.012 67.4917 799.394 67.2563 799.629C67.021 799.85 66.7127 799.96 66.3314 799.961L58.6974 799.977C58.3754 799.758 58.1195 799.48 57.9298 799.143C57.7548 798.791 57.6679 798.381 57.6693 797.911C57.6707 797.413 57.7745 796.994 57.9808 796.657C58.1871 796.304 58.4152 796.025 58.6651 795.819L61.7085 793.217C62.0907 792.893 62.4068 792.607 62.6569 792.357C62.9069 792.092 63.1056 791.857 63.2529 791.652C63.4148 791.446 63.5253 791.255 63.5845 791.079C63.6583 790.903 63.6954 790.734 63.6959 790.573C63.697 790.162 63.5146 789.84 63.1486 789.606C62.7973 789.372 62.3576 789.256 61.8296 789.257C61.2429 789.258 60.7147 789.354 60.2448 789.546C59.7896 789.723 59.4078 789.914 59.0992 790.12C58.8504 789.945 58.6457 789.725 58.4851 789.462C58.3245 789.198 58.2447 788.89 58.2457 788.538C58.2478 787.775 58.6087 787.21 59.3284 786.842C60.0482 786.459 61.0167 786.266 62.234 786.264ZM77.2064 793.25C77.21 791.96 77.0222 790.963 76.6428 790.26C76.2781 789.556 75.7511 789.206 75.0618 789.207C74.3725 789.208 73.8435 789.562 73.4748 790.266C73.1208 790.971 72.942 791.969 72.9384 793.259C72.9347 794.55 73.1079 795.554 73.4579 796.272C73.8226 796.976 74.3496 797.326 75.0389 797.325C75.7282 797.324 76.2572 796.97 76.6259 796.266C77.0092 795.546 77.2027 794.541 77.2064 793.25ZM80.9684 793.243C80.9652 794.372 80.8157 795.377 80.5199 796.258C80.2241 797.138 79.8113 797.88 79.2816 798.482C78.7666 799.07 78.142 799.518 77.4078 799.828C76.6883 800.138 75.9032 800.293 75.0525 800.295C74.1872 800.297 73.3883 800.144 72.6558 799.838C71.938 799.531 71.316 799.085 70.7896 798.5C70.278 797.9 69.8767 797.16 69.5859 796.28C69.3097 795.401 69.1732 794.397 69.1764 793.267C69.1796 792.138 69.3217 791.14 69.6028 790.274C69.8986 789.394 70.304 788.66 70.819 788.072C71.3487 787.469 71.9733 787.013 72.6929 786.704C73.4271 786.394 74.2268 786.239 75.0922 786.237C75.9428 786.235 76.7271 786.388 77.4449 786.694C78.1773 787.001 78.7994 787.454 79.311 788.054C79.8373 788.64 80.2459 789.372 80.5368 790.252C80.8277 791.116 80.9715 792.113 80.9684 793.243Z" fill="white"/>
<path d="M61.3608 699.943C63.0474 699.94 64.3298 700.289 65.2078 700.991C66.0859 701.679 66.5232 702.609 66.5199 703.783C66.5179 704.487 66.3256 705.088 65.9428 705.588C65.5748 706.073 65.1338 706.44 64.6197 706.691C64.9274 706.807 65.213 706.953 65.4765 707.129C65.74 707.304 65.974 707.524 66.1786 707.787C66.3832 708.051 66.5437 708.358 66.66 708.71C66.7764 709.062 66.8339 709.473 66.8326 709.942C66.8308 710.573 66.6899 711.137 66.4098 711.637C66.1444 712.136 65.7692 712.562 65.2842 712.915C64.7992 713.268 64.2191 713.533 63.544 713.711C62.8834 713.903 62.1572 714 61.3652 714.001C59.8398 714.004 58.6891 713.794 57.913 713.37C57.1368 712.947 56.7497 712.405 56.7516 711.745C56.7527 711.349 56.849 711.011 57.0404 710.732C57.2319 710.439 57.4672 710.211 57.7463 710.049C58.0391 710.254 58.4271 710.473 58.9105 710.706C59.4085 710.925 60.0535 711.034 60.8455 711.032C61.5935 711.031 62.1439 710.898 62.4966 710.633C62.8641 710.368 63.0484 710.023 63.0496 709.598C63.0508 709.172 62.905 708.85 62.6123 708.631C62.3342 708.411 61.8432 708.302 61.1392 708.304L59.0712 708.308C58.969 708.147 58.8816 707.949 58.8089 707.715C58.7362 707.48 58.7003 707.202 58.7013 706.879C58.7022 706.542 58.7323 706.256 58.7917 706.021C58.8657 705.771 58.9616 705.566 59.0794 705.404L61.1474 705.4C62.2034 705.398 62.7325 704.993 62.7348 704.186C62.7359 703.805 62.5681 703.498 62.2314 703.264C61.8947 703.03 61.3891 702.913 60.7144 702.915C60.1131 702.916 59.5849 702.99 59.1298 703.138C58.6748 703.271 58.3003 703.44 58.0064 703.646C57.7575 703.471 57.5528 703.259 57.3922 703.01C57.2316 702.746 57.1518 702.438 57.1528 702.086C57.1548 701.353 57.5377 700.817 58.3013 700.478C59.065 700.124 60.0848 699.946 61.3608 699.943ZM76.4017 706.93C76.4053 705.639 76.2175 704.642 75.8381 703.939C75.4734 703.236 74.9464 702.885 74.2571 702.886C73.5678 702.888 73.0388 703.241 72.6701 703.946C72.3161 704.65 72.1373 705.648 72.1337 706.939C72.1301 708.229 72.3032 709.234 72.6532 709.952C73.0179 710.655 73.5449 711.006 74.2342 711.004C74.9236 711.003 75.4525 710.65 75.8212 709.945C76.2045 709.226 76.398 708.221 76.4017 706.93ZM80.1637 706.922C80.1605 708.051 80.011 709.056 79.7152 709.937C79.4194 710.818 79.0066 711.559 78.4769 712.162C77.9619 712.749 77.3373 713.198 76.6031 713.507C75.8836 713.817 75.0985 713.973 74.2478 713.974C73.3825 713.976 72.5836 713.824 71.8512 713.517C71.1334 713.211 70.5113 712.765 69.9849 712.179C69.4733 711.579 69.0721 710.839 68.7812 709.96C68.505 709.08 68.3685 708.076 68.3717 706.947C68.3749 705.817 68.517 704.82 68.7981 703.954C69.0939 703.073 69.4993 702.339 70.0143 701.751C70.544 701.149 71.1686 700.693 71.8882 700.383C72.6224 700.074 73.4221 699.918 74.2875 699.916C75.1381 699.915 75.9224 700.067 76.6402 700.373C77.3726 700.68 77.9947 701.133 78.5063 701.734C79.0327 702.319 79.4413 703.052 79.7321 703.931C80.023 704.796 80.1669 705.793 80.1637 706.922Z" fill="white"/>
<path d="M61.8284 614.105C62.1073 614.016 62.4228 613.942 62.775 613.883C63.1418 613.823 63.4719 613.793 63.7653 613.793C64.1026 613.792 64.4252 613.828 64.7329 613.901C65.0554 613.959 65.3411 614.068 65.59 614.229C65.8389 614.375 66.0364 614.58 66.1823 614.844C66.3282 615.107 66.4006 615.437 66.3995 615.833L66.383 621.685L68.341 621.681C68.4285 621.842 68.5159 622.055 68.6032 622.318C68.6904 622.582 68.7337 622.861 68.7328 623.154C68.7313 623.711 68.6055 624.108 68.3555 624.343C68.1055 624.578 67.7898 624.696 67.4085 624.697L66.3745 624.699L66.3672 627.295C66.2058 627.325 65.9637 627.362 65.6409 627.407C65.318 627.466 65.01 627.496 64.7166 627.496C64.394 627.497 64.108 627.483 63.8587 627.454C63.6095 627.425 63.397 627.36 63.2213 627.258C63.0603 627.141 62.9361 626.98 62.8487 626.774C62.7613 626.569 62.718 626.291 62.719 625.939L62.7225 624.707L57.2005 624.718C56.8637 624.543 56.5711 624.287 56.3227 623.95C56.089 623.599 55.9729 623.173 55.9743 622.675C55.9751 622.396 56.0126 622.088 56.0869 621.751C56.1612 621.413 56.2867 621.12 56.4634 620.87L61.8284 614.105ZM62.9407 617.556L62.8747 617.556L59.937 621.699L62.929 621.692L62.9407 617.556ZM77.8746 620.605C77.8782 619.314 77.6904 618.317 77.311 617.614C76.9463 616.911 76.4193 616.56 75.73 616.562C75.0407 616.563 74.5117 616.916 74.143 617.621C73.789 618.326 73.6102 619.323 73.6066 620.614C73.603 621.905 73.7761 622.909 74.1261 623.627C74.4908 624.33 75.0178 624.681 75.7071 624.68C76.3964 624.678 76.9254 624.325 77.2941 623.62C77.6774 622.901 77.8709 621.896 77.8746 620.605ZM81.6366 620.597C81.6334 621.727 81.4839 622.732 81.1881 623.612C80.8923 624.493 80.4795 625.234 79.9498 625.837C79.4348 626.424 78.8102 626.873 78.076 627.183C77.3565 627.492 76.5714 627.648 75.7207 627.649C74.8554 627.651 74.0565 627.499 73.3241 627.193C72.6063 626.886 71.9842 626.44 71.4578 625.854C70.9462 625.254 70.545 624.514 70.2541 623.635C69.9779 622.756 69.8414 621.751 69.8446 620.622C69.8478 619.493 69.9899 618.495 70.271 617.629C70.5668 616.748 70.9722 616.014 71.4872 615.426C72.0169 614.824 72.6415 614.368 73.3611 614.059C74.0953 613.749 74.895 613.593 75.7604 613.592C76.611 613.59 77.3953 613.742 78.1131 614.049C78.8455 614.355 79.4676 614.808 79.9792 615.409C80.5056 615.994 80.9142 616.727 81.205 617.606C81.4959 618.471 81.6398 619.468 81.6366 620.597Z" fill="white"/>
<path d="M60.3011 541.36C59.6264 541.361 59.0106 541.311 58.4536 541.21C57.9112 541.108 57.4423 540.955 57.0469 540.751C56.6514 540.546 56.3441 540.298 56.125 540.005C55.9058 539.697 55.7968 539.345 55.7979 538.949C55.7991 538.539 55.9174 538.194 56.1529 537.915C56.3883 537.635 56.6529 537.415 56.9467 537.253C57.3565 537.56 57.7957 537.831 58.2644 538.064C58.7331 538.283 59.3268 538.392 60.0455 538.391C60.7348 538.389 61.2266 538.234 61.5208 537.925C61.815 537.617 61.9627 537.243 61.9639 536.803C61.9651 536.377 61.8341 536.025 61.5709 535.747C61.3224 535.469 60.8828 535.331 60.2521 535.332C59.8561 535.333 59.526 535.378 59.2617 535.466C58.9975 535.555 58.6965 535.68 58.3587 535.842C57.6401 535.814 57.0686 535.625 56.6443 535.274C56.2347 534.908 56.0309 534.351 56.033 533.603C56.0331 533.559 56.0333 533.508 56.0334 533.449C56.0337 533.376 56.0414 533.236 56.0566 533.031L56.33 529.686C56.3758 529.056 56.5752 528.557 56.9283 528.189C57.2813 527.822 57.7731 527.637 58.4038 527.636L64.7398 527.623C64.8273 527.784 64.9147 527.996 65.002 528.26C65.0893 528.524 65.1325 528.803 65.1316 529.096C65.1301 529.653 65.0043 530.05 64.7543 530.285C64.5043 530.52 64.1886 530.638 63.8073 530.639L59.5833 530.648L59.4235 532.716C59.7024 532.642 59.9812 532.575 60.26 532.516C60.5535 532.457 60.9203 532.427 61.3603 532.426C62.123 532.424 62.7826 532.54 63.3393 532.774C63.896 532.993 64.3498 533.3 64.7007 533.695C65.0662 534.09 65.3289 534.552 65.4888 535.079C65.6633 535.607 65.7497 536.171 65.748 536.773C65.7463 537.374 65.642 537.953 65.4351 538.511C65.2282 539.069 64.9041 539.561 64.4629 539.987C64.0218 540.399 63.4562 540.73 62.7662 540.981C62.0908 541.232 61.2691 541.358 60.3011 541.36ZM75.2225 534.289C75.2261 532.998 75.0383 532.001 74.6589 531.298C74.2942 530.595 73.7672 530.244 73.0779 530.245C72.3886 530.247 71.8596 530.6 71.4909 531.305C71.1369 532.009 70.9581 533.007 70.9545 534.298C70.9509 535.588 71.124 536.593 71.474 537.311C71.8387 538.014 72.3657 538.365 73.055 538.363C73.7444 538.362 74.2733 538.009 74.642 537.304C75.0254 536.585 75.2188 535.579 75.2225 534.289ZM78.9845 534.281C78.9813 535.41 78.8318 536.415 78.536 537.296C78.2402 538.176 77.8274 538.918 77.2977 539.52C76.7827 540.108 76.1581 540.557 75.4239 540.866C74.7044 541.176 73.9193 541.331 73.0686 541.333C72.2033 541.335 71.4044 541.183 70.672 540.876C69.9542 540.57 69.3321 540.124 68.8057 539.538C68.2941 538.938 67.8929 538.198 67.602 537.319C67.3258 536.439 67.1893 535.435 67.1925 534.306C67.1957 533.176 67.3378 532.179 67.6189 531.313C67.9147 530.432 68.3201 529.698 68.8351 529.11C69.3648 528.508 69.9894 528.052 70.709 527.742C71.4432 527.433 72.2429 527.277 73.1083 527.275C73.9589 527.274 74.7432 527.426 75.461 527.732C76.1934 528.039 76.8155 528.492 77.3271 529.092C77.8535 529.678 78.2621 530.411 78.5529 531.29C78.8438 532.155 78.9877 533.152 78.9845 534.281Z" fill="white"/>
<path d="M64.7639 442.929C64.7631 443.237 64.6889 443.538 64.5414 443.832C64.4086 444.111 64.2467 444.324 64.0556 444.471C63.6601 444.296 63.2425 444.165 62.8027 444.078C62.3777 443.976 61.9818 443.925 61.6152 443.926C60.7352 443.928 60.0525 444.164 59.5672 444.634C59.0966 445.09 58.7794 445.751 58.6156 446.616C58.9095 446.41 59.2987 446.226 59.7831 446.064C60.2676 445.887 60.7666 445.798 61.2799 445.797C62.6292 445.794 63.6988 446.18 64.4886 446.956C65.2931 447.732 65.6933 448.845 65.6892 450.297C65.6874 450.928 65.5757 451.53 65.3541 452.102C65.1325 452.675 64.801 453.181 64.3598 453.622C63.9186 454.048 63.3676 454.394 62.7069 454.66C62.0609 454.91 61.3052 455.037 60.4398 455.038C58.7092 455.042 57.3468 454.466 56.3528 453.309C55.3734 452.152 54.8867 450.503 54.8927 448.362C54.8961 447.145 55.0458 446.074 55.3418 445.149C55.6524 444.224 56.0799 443.454 56.6243 442.836C57.1833 442.219 57.8446 441.756 58.6082 441.446C59.3717 441.137 60.2155 440.981 61.1395 440.979C62.3128 440.977 63.207 441.136 63.8221 441.457C64.4519 441.779 64.7658 442.269 64.7639 442.929ZM60.4358 448.658C60.1572 448.659 59.8563 448.718 59.5333 448.836C59.225 448.954 58.9752 449.116 58.784 449.322L58.7824 449.872C58.7802 450.664 58.9399 451.228 59.2616 451.565C59.598 451.901 60.0009 452.069 60.4702 452.068C60.9542 452.067 61.314 451.905 61.5496 451.582C61.7998 451.259 61.9257 450.841 61.9271 450.327C61.9286 449.814 61.7977 449.411 61.5345 449.118C61.2861 448.811 60.9198 448.657 60.4358 448.658ZM75.1912 447.968C75.1949 446.677 75.007 445.68 74.6277 444.977C74.263 444.274 73.736 443.923 73.0466 443.924C72.3573 443.926 71.8283 444.279 71.4597 444.983C71.1057 445.688 70.9269 446.686 70.9232 447.977C70.9196 449.267 71.0928 450.271 71.4427 450.989C71.8074 451.693 72.3344 452.044 73.0238 452.042C73.7131 452.041 74.2421 451.688 74.6107 450.983C74.9941 450.263 75.1876 449.258 75.1912 447.968ZM78.9532 447.96C78.95 449.089 78.8005 450.094 78.5047 450.975C78.2089 451.855 77.7962 452.597 77.2665 453.199C76.7515 453.787 76.1269 454.236 75.3927 454.545C74.6732 454.855 73.8881 455.01 73.0374 455.012C72.1721 455.014 71.3732 454.862 70.6407 454.555C69.9229 454.249 69.3008 453.803 68.7745 453.217C68.2629 452.617 67.8616 451.877 67.5708 450.998C67.2946 450.118 67.1581 449.114 67.1613 447.984C67.1644 446.855 67.3066 445.857 67.5877 444.992C67.8835 444.111 68.2889 443.377 68.8039 442.789C69.3336 442.187 69.9582 441.731 70.6777 441.421C71.4119 441.112 72.2117 440.956 73.077 440.954C73.9277 440.952 74.7119 441.105 75.4297 441.411C76.1622 441.718 76.7842 442.171 77.2959 442.771C77.8222 443.357 78.2308 444.089 78.5217 444.969C78.8126 445.833 78.9564 446.83 78.9532 447.96Z" fill="white"/>
<path d="M62.8613 354.983C63.1101 355.144 63.3295 355.371 63.5193 355.664C63.7239 355.942 63.8256 356.294 63.8244 356.719C63.8237 356.954 63.801 357.196 63.7563 357.445C63.7117 357.68 63.6377 357.915 63.5343 358.15L58.9291 368.521C58.7238 368.536 58.5257 368.544 58.3351 368.545C58.1591 368.545 57.9904 368.545 57.8291 368.546C57.1691 368.547 56.6341 368.423 56.2241 368.175C55.8142 367.926 55.6101 367.494 55.6118 366.878C55.6127 366.57 55.6869 366.24 55.8346 365.888C55.9823 365.521 56.1815 365.088 56.4322 364.589L59.6628 358.004L54.2728 358.015C54.1852 357.854 54.0978 357.641 54.0106 357.378C53.9233 357.114 53.8801 356.835 53.8809 356.542C53.8825 355.985 54.0083 355.588 54.2583 355.353C54.5083 355.118 54.824 355 55.2053 354.999L62.8613 354.983ZM72.9041 361.65C72.9078 360.359 72.7199 359.363 72.3406 358.659C71.9759 357.956 71.4489 357.605 70.7595 357.607C70.0702 357.608 69.5412 357.961 69.1726 358.666C68.8186 359.371 68.6398 360.368 68.6361 361.659C68.6325 362.95 68.8057 363.954 69.1556 364.672C69.5203 365.375 70.0473 365.726 70.7367 365.725C71.426 365.723 71.955 365.37 72.3236 364.665C72.707 363.946 72.9005 362.941 72.9041 361.65ZM76.6661 361.642C76.6629 362.772 76.5134 363.777 76.2176 364.657C75.9218 365.538 75.5091 366.279 74.9794 366.882C74.4644 367.469 73.8398 367.918 73.1056 368.228C72.3861 368.537 71.601 368.693 70.7503 368.695C69.885 368.696 69.0861 368.544 68.3536 368.238C67.6358 367.931 67.0137 367.485 66.4874 366.899C65.9757 366.299 65.5745 365.559 65.2837 364.68C65.0075 363.801 64.871 362.796 64.8741 361.667C64.8773 360.538 65.0195 359.54 65.3006 358.674C65.5964 357.793 66.0018 357.059 66.5168 356.472C67.0465 355.869 67.6711 355.413 68.3906 355.104C69.1248 354.794 69.9246 354.638 70.7899 354.637C71.6406 354.635 72.4248 354.787 73.1426 355.094C73.8751 355.4 74.4971 355.854 75.0088 356.454C75.5351 357.039 75.9437 357.772 76.2346 358.651C76.5254 359.516 76.6693 360.513 76.6661 361.642Z" fill="white"/>
<path d="M53.8376 272.288C53.8393 271.702 53.9654 271.166 54.2161 270.681C54.4668 270.197 54.8127 269.778 55.2537 269.425C55.6947 269.072 56.2234 268.8 56.84 268.608C57.4565 268.416 58.1314 268.319 58.8648 268.318C59.5981 268.316 60.2725 268.403 60.888 268.578C61.5035 268.752 62.0308 269 62.4699 269.322C62.909 269.644 63.2525 270.039 63.5005 270.508C63.7486 270.977 63.8717 271.505 63.8701 272.091C63.8683 272.737 63.7347 273.302 63.4693 273.786C63.2039 274.271 62.8361 274.675 62.3659 274.998C62.9222 275.379 63.3755 275.832 63.7261 276.36C64.0766 276.872 64.2506 277.568 64.2482 278.448C64.2465 279.035 64.1203 279.571 63.8696 280.055C63.6189 280.54 63.2584 280.958 62.7881 281.311C62.3178 281.664 61.7523 281.937 61.0918 282.129C60.4313 282.321 59.6903 282.418 58.869 282.42C58.0477 282.421 57.3073 282.328 56.6478 282.138C55.9884 281.949 55.4245 281.679 54.9561 281.328C54.5024 280.977 54.1443 280.56 53.8817 280.076C53.6337 279.593 53.5105 279.058 53.5122 278.471C53.5144 277.679 53.6849 277.019 54.0238 276.49C54.3772 275.961 54.7891 275.55 55.2592 275.255C54.8641 274.933 54.5279 274.553 54.2505 274.113C53.9731 273.659 53.8355 273.051 53.8376 272.288ZM57.2751 278.133C57.2738 278.588 57.4195 278.947 57.7121 279.21C58.0193 279.473 58.4076 279.605 58.8769 279.604C59.3463 279.603 59.728 279.47 60.0221 279.205C60.3308 278.926 60.4859 278.566 60.4871 278.126C60.4883 277.701 60.3573 277.349 60.0941 277.071C59.8456 276.778 59.5015 276.552 59.062 276.391C58.4163 276.539 57.9536 276.768 57.6741 277.076C57.4093 277.37 57.2763 277.722 57.2751 278.133ZM60.1952 272.407C60.1963 272.011 60.0799 271.696 59.8459 271.462C59.6119 271.228 59.2822 271.111 58.8569 271.112C58.4315 271.113 58.1012 271.231 57.8659 271.466C57.6306 271.701 57.5124 272.009 57.5113 272.391C57.5102 272.772 57.6267 273.08 57.8607 273.314C58.1094 273.548 58.3948 273.738 58.7171 273.884C59.2307 273.766 59.6053 273.574 59.8407 273.31C60.0761 273.045 60.1943 272.744 60.1952 272.407ZM73.8394 275.326C73.8431 274.036 73.6552 273.039 73.2759 272.336C72.9112 271.632 72.3842 271.281 71.6948 271.283C71.0055 271.284 70.4765 271.637 70.1079 272.342C69.7539 273.047 69.5751 274.045 69.5714 275.335C69.5678 276.626 69.741 277.63 70.0909 278.348C70.4556 279.051 70.9826 279.402 71.672 279.401C72.3613 279.399 72.8903 279.046 73.2589 278.342C73.6423 277.622 73.8358 276.617 73.8394 275.326ZM77.6014 275.319C77.5982 276.448 77.4487 277.453 77.1529 278.333C76.8571 279.214 76.4444 279.956 75.9147 280.558C75.3997 281.146 74.7751 281.594 74.0409 281.904C73.3214 282.213 72.5363 282.369 71.6856 282.371C70.8203 282.373 70.0214 282.22 69.2889 281.914C68.5711 281.607 67.949 281.161 67.4227 280.576C66.911 279.976 66.5098 279.236 66.2189 278.356C65.9428 277.477 65.8063 276.473 65.8094 275.343C65.8126 274.214 65.9548 273.216 66.2359 272.35C66.5317 271.47 66.9371 270.736 67.4521 270.148C67.9818 269.545 68.6064 269.089 69.3259 268.78C70.0601 268.47 70.8599 268.315 71.7252 268.313C72.5759 268.311 73.3601 268.463 74.0779 268.77C74.8104 269.076 75.4324 269.53 75.9441 270.13C76.4704 270.716 76.879 271.448 77.1699 272.327C77.4607 273.192 77.6046 274.189 77.6014 275.319Z" fill="white"/>
<path d="M56.6841 193.133C57.6228 193.131 58.3715 192.887 58.9302 192.402C59.5035 191.917 59.7914 191.249 59.7938 190.398C59.6321 190.531 59.331 190.685 58.8905 190.862C58.4647 191.039 57.9144 191.128 57.2398 191.13C56.5651 191.131 55.9494 191.037 55.3926 190.848C54.8504 190.658 54.3819 190.38 53.9869 190.015C53.592 189.634 53.2853 189.173 53.0668 188.631C52.8484 188.088 52.7401 187.458 52.7422 186.739C52.7439 186.109 52.8556 185.514 53.0772 184.957C53.2988 184.384 53.6302 183.885 54.0714 183.458C54.5126 183.018 55.0563 182.672 55.7023 182.421C56.3631 182.156 57.1261 182.022 57.9914 182.02C59.7221 182.017 61.0771 182.593 62.0565 183.75C63.0506 184.906 63.5446 186.555 63.5386 188.697C63.5351 189.914 63.3781 190.985 63.0675 191.91C62.7569 192.834 62.3221 193.605 61.763 194.222C61.2186 194.839 60.5646 195.303 59.8011 195.612C59.0376 195.922 58.1938 196.078 57.2698 196.08C56.0965 196.082 55.1803 195.923 54.5212 195.601C53.8621 195.28 53.5335 194.79 53.5353 194.13C53.5362 193.822 53.603 193.528 53.7358 193.249C53.8833 192.955 54.0526 192.735 54.2437 192.588C54.6392 192.763 55.0494 192.902 55.4745 193.003C55.9142 193.091 56.3175 193.134 56.6841 193.133ZM58.1057 188.312C58.3844 188.311 58.6632 188.252 58.9422 188.134C59.2359 188.016 59.4783 187.854 59.6696 187.649L59.6703 187.385C59.658 186.549 59.513 185.94 59.2354 185.56C58.9579 185.179 58.5477 184.989 58.0051 184.99C57.5211 184.991 57.1393 185.146 56.8598 185.455C56.5949 185.749 56.4618 186.152 56.4603 186.665C56.4589 187.164 56.6118 187.567 56.9189 187.875C57.2261 188.167 57.6217 188.313 58.1057 188.312ZM73.0992 189.007C73.1028 187.716 72.915 186.719 72.5356 186.016C72.1709 185.313 71.6439 184.962 70.9546 184.963C70.2653 184.965 69.7363 185.318 69.3676 186.023C69.0137 186.727 68.8348 187.725 68.8312 189.016C68.8276 190.306 69.0007 191.311 69.3507 192.028C69.7154 192.732 70.2424 193.083 70.9317 193.081C71.6211 193.08 72.15 192.727 72.5187 192.022C72.9021 191.302 73.0956 190.297 73.0992 189.007ZM76.8612 188.999C76.858 190.128 76.7085 191.133 76.4127 192.014C76.1169 192.894 75.7041 193.636 75.1744 194.238C74.6594 194.826 74.0349 195.275 73.3007 195.584C72.5811 195.894 71.796 196.049 70.9454 196.051C70.08 196.053 69.2811 195.901 68.5487 195.594C67.8309 195.288 67.2088 194.842 66.6824 194.256C66.1708 193.656 65.7696 192.916 65.4787 192.037C65.2025 191.157 65.066 190.153 65.0692 189.023C65.0724 187.894 65.2145 186.897 65.4956 186.031C65.7915 185.15 66.1969 184.416 66.7118 183.828C67.2415 183.226 67.8661 182.77 68.5857 182.46C69.3199 182.151 70.1196 181.995 70.985 181.993C71.8356 181.991 72.6199 182.144 73.3377 182.45C74.0701 182.757 74.6922 183.21 75.2038 183.81C75.7302 184.396 76.1388 185.128 76.4296 186.008C76.7205 186.872 76.8644 187.869 76.8612 188.999Z" fill="white"/>
<path d="M54.7537 99.5988L52.5518 100.285C52.3322 100.139 52.1128 99.9343 51.8935 99.6708C51.6742 99.4072 51.5653 99.0408 51.5666 98.5715C51.5691 97.6915 52.1062 97.0743 53.1778 96.7201L55.6442 95.879L56.4582 95.8773C57.0888 95.8759 57.587 96.0582 57.9526 96.4241C58.3182 96.79 58.5002 97.2883 58.4984 97.919L58.4661 109.381C58.3047 109.411 58.0626 109.448 57.7398 109.492C57.4316 109.552 57.1162 109.582 56.7935 109.582C56.4709 109.583 56.1776 109.562 55.9137 109.518C55.6645 109.475 55.4521 109.387 55.2765 109.256C55.1008 109.124 54.962 108.948 54.8599 108.728C54.7726 108.494 54.7295 108.193 54.7305 107.827L54.7537 99.5988ZM68.7716 102.693C68.7752 101.403 68.5873 100.406 68.208 99.7027C67.8433 98.9994 67.3163 98.6486 66.627 98.65C65.9376 98.6514 65.4087 99.0045 65.04 99.7093C64.686 100.414 64.5072 101.412 64.5036 102.702C64.4999 103.993 64.6731 104.997 65.0231 105.715C65.3878 106.419 65.9148 106.769 66.6041 106.768C67.2934 106.767 67.8224 106.413 68.1911 105.709C68.5744 104.989 68.7679 103.984 68.7716 102.693ZM72.5336 102.686C72.5304 103.815 72.3809 104.82 72.0851 105.701C71.7892 106.581 71.3765 107.323 70.8468 107.925C70.3318 108.513 69.7072 108.961 68.973 109.271C68.2535 109.58 67.4684 109.736 66.6177 109.738C65.7524 109.74 64.9535 109.587 64.221 109.281C63.5032 108.974 62.8812 108.528 62.3548 107.943C61.8432 107.343 61.4419 106.603 61.1511 105.723C60.8749 104.844 60.7384 103.84 60.7416 102.71C60.7448 101.581 60.8869 100.583 61.168 99.7174C61.4638 98.8368 61.8692 98.1026 62.3842 97.5149C62.9139 96.9124 63.5385 96.4565 64.2581 96.147C64.9923 95.8374 65.792 95.6818 66.6573 95.68C67.508 95.6782 68.2922 95.8305 69.01 96.137C69.7425 96.4435 70.3646 96.8969 70.8762 97.4971C71.4025 98.0827 71.8111 98.8152 72.102 99.6945C72.3929 100.559 72.5367 101.556 72.5336 102.686ZM82.1133 102.666C82.117 101.375 81.9291 100.378 81.5498 99.6748C81.1851 98.9716 80.6581 98.6207 79.9687 98.6221C79.2794 98.6236 78.7504 98.9767 78.3818 99.6814C78.0278 100.386 77.849 101.384 77.8453 102.675C77.8417 103.965 78.0149 104.969 78.3648 105.687C78.7295 106.391 79.2565 106.742 79.9459 106.74C80.6352 106.739 81.1642 106.386 81.5328 105.681C81.9162 104.961 82.1097 103.956 82.1133 102.666ZM85.8753 102.658C85.8721 103.787 85.7226 104.792 85.4268 105.673C85.131 106.553 84.7183 107.295 84.1886 107.897C83.6736 108.485 83.049 108.934 82.3148 109.243C81.5953 109.553 80.8102 109.708 79.9595 109.71C79.0942 109.712 78.2953 109.56 77.5628 109.253C76.845 108.947 76.2229 108.501 75.6966 107.915C75.185 107.315 74.7837 106.575 74.4929 105.695C74.2167 104.816 74.0802 103.812 74.0833 102.682C74.0865 101.553 74.2287 100.555 74.5098 99.6895C74.8056 98.8089 75.211 98.0747 75.726 97.487C76.2557 96.8846 76.8803 96.4286 77.5998 96.1191C78.334 95.8096 79.1338 95.6539 79.9991 95.6521C80.8498 95.6503 81.634 95.8027 82.3518 96.1092C83.0843 96.4156 83.7063 96.869 84.218 97.4692C84.7443 98.0548 85.1529 98.7873 85.4438 99.6667C85.7347 100.531 85.8785 101.528 85.8753 102.658Z" fill="white"/>
<path d="M144.84 918.5C145.4 918.5 145.827 918.373 146.12 918.12C146.427 917.853 146.58 917.453 146.58 916.92C146.58 916.413 146.42 916.027 146.1 915.76C145.793 915.48 145.34 915.34 144.74 915.34C144.527 915.34 144.347 915.347 144.2 915.36C144.067 915.36 143.927 915.373 143.78 915.4V918.5H144.84ZM143.8 924.92C143.653 924.96 143.42 925 143.1 925.04C142.793 925.08 142.487 925.1 142.18 925.1C141.873 925.1 141.6 925.073 141.36 925.02C141.133 924.98 140.94 924.9 140.78 924.78C140.62 924.66 140.5 924.493 140.42 924.28C140.34 924.067 140.3 923.787 140.3 923.44V914.02C140.3 913.74 140.373 913.527 140.52 913.38C140.68 913.22 140.893 913.093 141.16 913C141.613 912.84 142.127 912.727 142.7 912.66C143.287 912.58 143.873 912.54 144.46 912.54C146.3 912.54 147.707 912.933 148.68 913.72C149.653 914.507 150.14 915.573 150.14 916.92C150.14 917.573 150.033 918.167 149.82 918.7C149.62 919.22 149.313 919.673 148.9 920.06C148.5 920.433 147.987 920.727 147.36 920.94C146.747 921.14 146.033 921.24 145.22 921.24H143.8V924.92ZM153.181 922.52C153.034 922.187 152.874 921.813 152.701 921.4C152.541 920.987 152.368 920.513 152.181 919.98C152.008 919.447 151.821 918.84 151.621 918.16C151.434 917.467 151.234 916.673 151.021 915.78C151.208 915.593 151.454 915.433 151.761 915.3C152.081 915.153 152.428 915.08 152.801 915.08C153.268 915.08 153.654 915.18 153.961 915.38C154.268 915.567 154.494 915.927 154.641 916.46L156.221 921.96H156.301C156.461 921.507 156.614 921.013 156.761 920.48C156.921 919.947 157.074 919.4 157.221 918.84C157.368 918.267 157.501 917.7 157.621 917.14C157.754 916.567 157.868 916.007 157.961 915.46C158.441 915.207 158.968 915.08 159.541 915.08C160.008 915.08 160.394 915.18 160.701 915.38C161.008 915.58 161.161 915.927 161.161 916.42C161.161 916.78 161.114 917.2 161.021 917.68C160.928 918.147 160.801 918.647 160.641 919.18C160.494 919.713 160.314 920.267 160.101 920.84C159.901 921.4 159.688 921.953 159.461 922.5C159.234 923.047 159.001 923.567 158.761 924.06C158.521 924.54 158.288 924.973 158.061 925.36C157.688 926.013 157.341 926.547 157.021 926.96C156.701 927.373 156.394 927.693 156.101 927.92C155.808 928.16 155.514 928.32 155.221 928.4C154.928 928.493 154.621 928.54 154.301 928.54C153.741 928.54 153.288 928.373 152.941 928.04C152.594 927.707 152.388 927.273 152.321 926.74C152.748 926.407 153.174 926.033 153.601 925.62C154.028 925.22 154.414 924.807 154.761 924.38C154.534 924.313 154.288 924.16 154.021 923.92C153.768 923.667 153.488 923.2 153.181 922.52ZM166.077 921.66C166.077 922.007 166.183 922.253 166.397 922.4C166.623 922.547 166.937 922.62 167.337 922.62C167.537 922.62 167.743 922.607 167.957 922.58C168.17 922.54 168.357 922.493 168.517 922.44C168.637 922.587 168.737 922.753 168.817 922.94C168.91 923.113 168.957 923.327 168.957 923.58C168.957 924.087 168.763 924.5 168.377 924.82C168.003 925.14 167.337 925.3 166.377 925.3C165.203 925.3 164.297 925.033 163.657 924.5C163.03 923.967 162.717 923.1 162.717 921.9V913.34C162.863 913.3 163.07 913.26 163.337 913.22C163.617 913.167 163.91 913.14 164.217 913.14C164.803 913.14 165.257 913.247 165.577 913.46C165.91 913.66 166.077 914.093 166.077 914.76V916.04H168.697C168.777 916.187 168.85 916.373 168.917 916.6C168.997 916.813 169.037 917.053 169.037 917.32C169.037 917.787 168.93 918.127 168.717 918.34C168.517 918.54 168.243 918.64 167.897 918.64H166.077V921.66ZM180.285 924.98C180.151 925.02 179.938 925.06 179.645 925.1C179.365 925.14 179.071 925.16 178.765 925.16C178.471 925.16 178.205 925.14 177.965 925.1C177.738 925.06 177.545 924.98 177.385 924.86C177.225 924.74 177.098 924.58 177.005 924.38C176.925 924.167 176.885 923.893 176.885 923.56V919.12C176.885 918.573 176.745 918.193 176.465 917.98C176.198 917.753 175.865 917.64 175.465 917.64C175.198 917.64 174.945 917.673 174.705 917.74C174.465 917.807 174.271 917.887 174.125 917.98V924.98C173.991 925.02 173.778 925.06 173.485 925.1C173.205 925.14 172.911 925.16 172.605 925.16C172.311 925.16 172.045 925.14 171.805 925.1C171.578 925.06 171.385 924.98 171.225 924.86C171.065 924.74 170.938 924.58 170.845 924.38C170.765 924.167 170.725 923.893 170.725 923.56V911.96C170.871 911.933 171.085 911.9 171.365 911.86C171.658 911.807 171.951 911.78 172.245 911.78C172.538 911.78 172.798 911.8 173.025 911.84C173.265 911.88 173.465 911.96 173.625 912.08C173.785 912.2 173.905 912.367 173.985 912.58C174.078 912.78 174.125 913.047 174.125 913.38V915.34C174.298 915.273 174.558 915.2 174.905 915.12C175.265 915.027 175.658 914.98 176.085 914.98C177.405 914.98 178.431 915.313 179.165 915.98C179.911 916.633 180.285 917.613 180.285 918.92V924.98ZM192.444 920.14C192.444 920.967 192.317 921.707 192.064 922.36C191.81 923 191.45 923.54 190.984 923.98C190.53 924.42 189.984 924.753 189.344 924.98C188.704 925.207 187.99 925.32 187.204 925.32C186.417 925.32 185.704 925.2 185.064 924.96C184.424 924.72 183.87 924.38 183.404 923.94C182.95 923.487 182.597 922.94 182.344 922.3C182.09 921.66 181.964 920.94 181.964 920.14C181.964 919.353 182.09 918.64 182.344 918C182.597 917.36 182.95 916.82 183.404 916.38C183.87 915.927 184.424 915.58 185.064 915.34C185.704 915.1 186.417 914.98 187.204 914.98C187.99 914.98 188.704 915.107 189.344 915.36C189.984 915.6 190.53 915.947 190.984 916.4C191.45 916.84 191.81 917.38 192.064 918.02C192.317 918.66 192.444 919.367 192.444 920.14ZM185.444 920.14C185.444 920.953 185.597 921.58 185.904 922.02C186.224 922.447 186.664 922.66 187.224 922.66C187.784 922.66 188.21 922.44 188.504 922C188.81 921.56 188.964 920.94 188.964 920.14C188.964 919.34 188.81 918.727 188.504 918.3C188.197 917.86 187.764 917.64 187.204 917.64C186.644 917.64 186.21 917.86 185.904 918.3C185.597 918.727 185.444 919.34 185.444 920.14ZM200.263 918.84C200.263 918.427 200.143 918.127 199.903 917.94C199.676 917.74 199.363 917.64 198.963 917.64C198.696 917.64 198.429 917.673 198.163 917.74C197.909 917.807 197.689 917.907 197.503 918.04V924.98C197.369 925.02 197.156 925.06 196.863 925.1C196.583 925.14 196.289 925.16 195.983 925.16C195.689 925.16 195.423 925.14 195.183 925.1C194.956 925.06 194.763 924.98 194.603 924.86C194.443 924.74 194.316 924.58 194.223 924.38C194.143 924.167 194.103 923.893 194.103 923.56V917.56C194.103 917.2 194.176 916.907 194.323 916.68C194.483 916.453 194.696 916.247 194.963 916.06C195.416 915.74 195.983 915.48 196.663 915.28C197.356 915.08 198.123 914.98 198.963 914.98C200.469 914.98 201.629 915.313 202.443 915.98C203.256 916.633 203.663 917.547 203.663 918.72V924.98C203.529 925.02 203.316 925.06 203.023 925.1C202.743 925.14 202.449 925.16 202.143 925.16C201.849 925.16 201.583 925.14 201.343 925.1C201.116 925.06 200.923 924.98 200.763 924.86C200.603 924.74 200.476 924.58 200.383 924.38C200.303 924.167 200.263 923.893 200.263 923.56V918.84Z" fill="white"/>
<path d="M515.14 921.92C514.993 921.96 514.76 922 514.44 922.04C514.133 922.08 513.827 922.1 513.52 922.1C513.213 922.1 512.94 922.073 512.7 922.02C512.473 921.98 512.28 921.9 512.12 921.78C511.96 921.66 511.84 921.493 511.76 921.28C511.68 921.067 511.64 920.787 511.64 920.44V917.32H507.8V921.92C507.653 921.96 507.42 922 507.1 922.04C506.793 922.08 506.487 922.1 506.18 922.1C505.873 922.1 505.6 922.073 505.36 922.02C505.133 921.98 504.94 921.9 504.78 921.78C504.62 921.66 504.5 921.493 504.42 921.28C504.34 921.067 504.3 920.787 504.3 920.44V909.88C504.447 909.853 504.68 909.82 505 909.78C505.32 909.727 505.627 909.7 505.92 909.7C506.227 909.7 506.493 909.727 506.72 909.78C506.96 909.82 507.16 909.9 507.32 910.02C507.48 910.14 507.6 910.307 507.68 910.52C507.76 910.733 507.8 911.013 507.8 911.36V914.56H511.64V909.88C511.787 909.853 512.02 909.82 512.34 909.78C512.66 909.727 512.967 909.7 513.26 909.7C513.567 909.7 513.833 909.727 514.06 909.78C514.3 909.82 514.5 909.9 514.66 910.02C514.82 910.14 514.94 910.307 515.02 910.52C515.1 910.733 515.14 911.013 515.14 911.36V921.92ZM520.878 918.66C520.878 919.007 520.984 919.253 521.198 919.4C521.424 919.547 521.738 919.62 522.138 919.62C522.338 919.62 522.544 919.607 522.758 919.58C522.971 919.54 523.158 919.493 523.318 919.44C523.438 919.587 523.538 919.753 523.618 919.94C523.711 920.113 523.758 920.327 523.758 920.58C523.758 921.087 523.564 921.5 523.178 921.82C522.804 922.14 522.138 922.3 521.178 922.3C520.004 922.3 519.098 922.033 518.458 921.5C517.831 920.967 517.518 920.1 517.518 918.9V910.34C517.664 910.3 517.871 910.26 518.138 910.22C518.418 910.167 518.711 910.14 519.018 910.14C519.604 910.14 520.058 910.247 520.378 910.46C520.711 910.66 520.878 911.093 520.878 911.76V913.04H523.498C523.578 913.187 523.651 913.373 523.718 913.6C523.798 913.813 523.838 914.053 523.838 914.32C523.838 914.787 523.731 915.127 523.518 915.34C523.318 915.54 523.044 915.64 522.698 915.64H520.878V918.66ZM530.145 911.98C530.692 911.98 531.225 912.06 531.745 912.22C532.279 912.367 532.739 912.593 533.125 912.9C533.525 912.633 533.972 912.413 534.465 912.24C534.972 912.067 535.579 911.98 536.285 911.98C536.792 911.98 537.285 912.047 537.765 912.18C538.259 912.313 538.692 912.527 539.065 912.82C539.452 913.1 539.759 913.48 539.985 913.96C540.212 914.427 540.325 915 540.325 915.68V921.98C540.192 922.02 539.979 922.06 539.685 922.1C539.405 922.14 539.112 922.16 538.805 922.16C538.512 922.16 538.245 922.14 538.005 922.1C537.779 922.06 537.585 921.98 537.425 921.86C537.265 921.74 537.139 921.58 537.045 921.38C536.965 921.167 536.925 920.893 536.925 920.56V915.78C536.925 915.38 536.812 915.093 536.585 914.92C536.359 914.733 536.052 914.64 535.665 914.64C535.479 914.64 535.279 914.687 535.065 914.78C534.852 914.86 534.692 914.947 534.585 915.04C534.599 915.093 534.605 915.147 534.605 915.2C534.605 915.24 534.605 915.28 534.605 915.32V921.98C534.459 922.02 534.239 922.06 533.945 922.1C533.665 922.14 533.379 922.16 533.085 922.16C532.792 922.16 532.525 922.14 532.285 922.1C532.059 922.06 531.865 921.98 531.705 921.86C531.545 921.74 531.419 921.58 531.325 921.38C531.245 921.167 531.205 920.893 531.205 920.56V915.78C531.205 915.38 531.079 915.093 530.825 914.92C530.585 914.733 530.292 914.64 529.945 914.64C529.705 914.64 529.499 914.68 529.325 914.76C529.152 914.827 529.005 914.893 528.885 914.96V921.98C528.752 922.02 528.539 922.06 528.245 922.1C527.965 922.14 527.672 922.16 527.365 922.16C527.072 922.16 526.805 922.14 526.565 922.1C526.339 922.06 526.145 921.98 525.985 921.86C525.825 921.74 525.699 921.58 525.605 921.38C525.525 921.167 525.485 920.893 525.485 920.56V914.52C525.485 914.16 525.559 913.873 525.705 913.66C525.865 913.447 526.079 913.247 526.345 913.06C526.799 912.74 527.359 912.48 528.025 912.28C528.705 912.08 529.412 911.98 530.145 911.98ZM545.859 921.98C545.713 922.007 545.493 922.04 545.199 922.08C544.919 922.133 544.633 922.16 544.339 922.16C544.046 922.16 543.779 922.14 543.539 922.1C543.313 922.06 543.119 921.98 542.959 921.86C542.799 921.74 542.673 921.58 542.579 921.38C542.499 921.167 542.459 920.893 542.459 920.56V908.96C542.606 908.933 542.819 908.9 543.099 908.86C543.393 908.807 543.686 908.78 543.979 908.78C544.273 908.78 544.533 908.8 544.759 908.84C544.999 908.88 545.199 908.96 545.359 909.08C545.519 909.2 545.639 909.367 545.719 909.58C545.813 909.78 545.859 910.047 545.859 910.38V921.98Z" fill="white"/>
<path d="M293.48 915.32C292.453 915.32 291.667 915.633 291.12 916.26C290.573 916.887 290.3 917.773 290.3 918.92C290.3 920.08 290.6 920.973 291.2 921.6C291.813 922.227 292.633 922.54 293.66 922.54C294.207 922.54 294.667 922.467 295.04 922.32C295.427 922.173 295.793 922.007 296.14 921.82C296.367 922.007 296.54 922.233 296.66 922.5C296.793 922.753 296.86 923.053 296.86 923.4C296.86 923.947 296.553 924.413 295.94 924.8C295.34 925.173 294.42 925.36 293.18 925.36C292.287 925.36 291.447 925.233 290.66 924.98C289.873 924.727 289.187 924.34 288.6 923.82C288.013 923.287 287.547 922.62 287.2 921.82C286.867 921.007 286.7 920.04 286.7 918.92C286.7 917.88 286.86 916.967 287.18 916.18C287.513 915.38 287.96 914.707 288.52 914.16C289.093 913.613 289.76 913.2 290.52 912.92C291.28 912.64 292.093 912.5 292.96 912.5C294.187 912.5 295.133 912.7 295.8 913.1C296.48 913.5 296.82 914.013 296.82 914.64C296.82 914.987 296.733 915.287 296.56 915.54C296.387 915.793 296.187 915.993 295.96 916.14C295.613 915.913 295.24 915.72 294.84 915.56C294.453 915.4 294 915.32 293.48 915.32ZM306.666 922.1C306.666 923.113 306.286 923.907 305.526 924.48C304.766 925.053 303.646 925.34 302.166 925.34C301.606 925.34 301.086 925.3 300.606 925.22C300.126 925.14 299.712 925.02 299.366 924.86C299.032 924.687 298.766 924.473 298.566 924.22C298.379 923.967 298.286 923.667 298.286 923.32C298.286 923 298.352 922.733 298.486 922.52C298.619 922.293 298.779 922.107 298.966 921.96C299.352 922.173 299.792 922.367 300.286 922.54C300.792 922.7 301.372 922.78 302.026 922.78C302.439 922.78 302.752 922.72 302.966 922.6C303.192 922.48 303.306 922.32 303.306 922.12C303.306 921.933 303.226 921.787 303.066 921.68C302.906 921.573 302.639 921.487 302.266 921.42L301.666 921.3C300.506 921.073 299.639 920.72 299.066 920.24C298.506 919.747 298.226 919.047 298.226 918.14C298.226 917.647 298.332 917.2 298.546 916.8C298.759 916.4 299.059 916.067 299.446 915.8C299.832 915.533 300.292 915.327 300.826 915.18C301.372 915.033 301.972 914.96 302.626 914.96C303.119 914.96 303.579 915 304.006 915.08C304.446 915.147 304.826 915.253 305.146 915.4C305.466 915.547 305.719 915.74 305.906 915.98C306.092 916.207 306.186 916.48 306.186 916.8C306.186 917.107 306.126 917.373 306.006 917.6C305.899 917.813 305.759 917.993 305.586 918.14C305.479 918.073 305.319 918.007 305.106 917.94C304.892 917.86 304.659 917.793 304.406 917.74C304.152 917.673 303.892 917.62 303.626 917.58C303.372 917.54 303.139 917.52 302.926 917.52C302.486 917.52 302.146 917.573 301.906 917.68C301.666 917.773 301.546 917.927 301.546 918.14C301.546 918.287 301.612 918.407 301.746 918.5C301.879 918.593 302.132 918.68 302.506 918.76L303.126 918.9C304.406 919.193 305.312 919.6 305.846 920.12C306.392 920.627 306.666 921.287 306.666 922.1ZM316.51 922.1C316.51 923.113 316.13 923.907 315.37 924.48C314.61 925.053 313.49 925.34 312.01 925.34C311.45 925.34 310.93 925.3 310.45 925.22C309.97 925.14 309.556 925.02 309.21 924.86C308.876 924.687 308.61 924.473 308.41 924.22C308.223 923.967 308.13 923.667 308.13 923.32C308.13 923 308.196 922.733 308.33 922.52C308.463 922.293 308.623 922.107 308.81 921.96C309.196 922.173 309.636 922.367 310.13 922.54C310.636 922.7 311.216 922.78 311.87 922.78C312.283 922.78 312.596 922.72 312.81 922.6C313.036 922.48 313.15 922.32 313.15 922.12C313.15 921.933 313.07 921.787 312.91 921.68C312.75 921.573 312.483 921.487 312.11 921.42L311.51 921.3C310.35 921.073 309.483 920.72 308.91 920.24C308.35 919.747 308.07 919.047 308.07 918.14C308.07 917.647 308.176 917.2 308.39 916.8C308.603 916.4 308.903 916.067 309.29 915.8C309.676 915.533 310.136 915.327 310.67 915.18C311.216 915.033 311.816 914.96 312.47 914.96C312.963 914.96 313.423 915 313.85 915.08C314.29 915.147 314.67 915.253 314.99 915.4C315.31 915.547 315.563 915.74 315.75 915.98C315.936 916.207 316.03 916.48 316.03 916.8C316.03 917.107 315.97 917.373 315.85 917.6C315.743 917.813 315.603 917.993 315.43 918.14C315.323 918.073 315.163 918.007 314.95 917.94C314.736 917.86 314.503 917.793 314.25 917.74C313.996 917.673 313.736 917.62 313.47 917.58C313.216 917.54 312.983 917.52 312.77 917.52C312.33 917.52 311.99 917.573 311.75 917.68C311.51 917.773 311.39 917.927 311.39 918.14C311.39 918.287 311.456 918.407 311.59 918.5C311.723 918.593 311.976 918.68 312.35 918.76L312.97 918.9C314.25 919.193 315.156 919.6 315.69 920.12C316.236 920.627 316.51 921.287 316.51 922.1Z" fill="white"/>
<path d="M407.5 911.88C407.647 911.853 407.88 911.82 408.2 911.78C408.52 911.727 408.827 911.7 409.12 911.7C409.427 911.7 409.693 911.727 409.92 911.78C410.16 911.82 410.36 911.9 410.52 912.02C410.68 912.14 410.8 912.307 410.88 912.52C410.96 912.733 411 913.013 411 913.36V920.76C411 921.947 410.66 922.84 409.98 923.44C409.3 924.027 408.3 924.32 406.98 924.32C406.287 924.32 405.727 924.213 405.3 924C404.993 923.853 404.767 923.653 404.62 923.4C404.487 923.147 404.42 922.86 404.42 922.54C404.42 922.273 404.453 922.04 404.52 921.84C404.6 921.64 404.693 921.48 404.8 921.36C405.053 921.413 405.267 921.453 405.44 921.48C405.627 921.493 405.827 921.5 406.04 921.5C406.56 921.5 406.933 921.373 407.16 921.12C407.387 920.853 407.5 920.467 407.5 919.96V911.88ZM421.482 921.1C421.482 922.113 421.102 922.907 420.342 923.48C419.582 924.053 418.462 924.34 416.982 924.34C416.422 924.34 415.902 924.3 415.422 924.22C414.942 924.14 414.529 924.02 414.182 923.86C413.849 923.687 413.582 923.473 413.382 923.22C413.196 922.967 413.102 922.667 413.102 922.32C413.102 922 413.169 921.733 413.302 921.52C413.436 921.293 413.596 921.107 413.782 920.96C414.169 921.173 414.609 921.367 415.102 921.54C415.609 921.7 416.189 921.78 416.842 921.78C417.256 921.78 417.569 921.72 417.782 921.6C418.009 921.48 418.122 921.32 418.122 921.12C418.122 920.933 418.042 920.787 417.882 920.68C417.722 920.573 417.456 920.487 417.082 920.42L416.482 920.3C415.322 920.073 414.456 919.72 413.882 919.24C413.322 918.747 413.042 918.047 413.042 917.14C413.042 916.647 413.149 916.2 413.362 915.8C413.576 915.4 413.876 915.067 414.262 914.8C414.649 914.533 415.109 914.327 415.642 914.18C416.189 914.033 416.789 913.96 417.442 913.96C417.936 913.96 418.396 914 418.822 914.08C419.262 914.147 419.642 914.253 419.962 914.4C420.282 914.547 420.536 914.74 420.722 914.98C420.909 915.207 421.002 915.48 421.002 915.8C421.002 916.107 420.942 916.373 420.822 916.6C420.716 916.813 420.576 916.993 420.402 917.14C420.296 917.073 420.136 917.007 419.922 916.94C419.709 916.86 419.476 916.793 419.222 916.74C418.969 916.673 418.709 916.62 418.442 916.58C418.189 916.54 417.956 916.52 417.742 916.52C417.302 916.52 416.962 916.573 416.722 916.68C416.482 916.773 416.362 916.927 416.362 917.14C416.362 917.287 416.429 917.407 416.562 917.5C416.696 917.593 416.949 917.68 417.322 917.76L417.942 917.9C419.222 918.193 420.129 918.6 420.662 919.12C421.209 919.627 421.482 920.287 421.482 921.1Z" fill="white"/>
<path d="M145 459C145 444.088 157.088 432 172 432C186.912 432 199 444.088 199 459V881H145V459Z" fill="#07FCC1"/>
<path d="M276 169C276 154.088 288.088 142 303 142C317.912 142 330 154.088 330 169V881H276V169Z" fill="#3840FF"/>
<path d="M389 286C389 271.088 401.088 259 416 259C430.912 259 443 271.088 443 286V881H389V286Z" fill="#FF2BAA"/>
<path d="M502 113C502 98.0883 514.088 86 529 86C543.912 86 556 98.0883 556 113V881H502V113Z" fill="#B924FF"/>
<defs>
<linearGradient id="paint0_linear" x1="252.734" y1="0.000190478" x2="144.328" y2="970.324" gradientUnits="userSpaceOnUse">
<stop stop-color="#2E2E2E"/>
<stop offset="1" stop-color="#1F1F1F"/>
</linearGradient>
</defs>
</svg>
