<svg width="378" height="51" viewBox="0 0 378 51" fill="none" xmlns="http://www.w3.org/2000/svg">
<path d="M26.9036 5.216C27.805 5.216 28.5676 5.44133 29.1916 5.892C29.8156 6.308 30.1276 6.828 30.1276 7.452C30.1276 8.56133 29.781 9.46267 29.0876 10.156C28.3943 10.8147 27.4063 11.144 26.1236 11.144C24.113 11.144 22.5876 11.1613 21.5476 11.196C21.4783 11.612 21.1663 13.484 20.6116 16.812C19.9876 20.5213 19.6063 22.792 19.4676 23.624L18.3756 30.436C17.613 35.532 17.0063 39.796 16.5556 43.228C17.2836 43.1933 18.2716 43.176 19.5196 43.176C21.357 43.176 22.605 43.4187 23.2636 43.904C23.9223 44.3893 24.2516 45.1173 24.2516 46.088C24.2516 46.9893 23.8876 47.752 23.1596 48.376C22.4663 49 21.4783 49.312 20.1956 49.312C19.329 49.312 17.9596 49.2773 16.0876 49.208C14.3543 49.1387 13.2103 49.104 12.6556 49.104C10.4716 49.104 8.07962 49.2947 5.47962 49.676C4.33562 49.8493 3.52096 49.936 3.03562 49.936C2.27296 49.936 1.63162 49.728 1.11162 49.312C0.591622 48.896 0.331622 48.2893 0.331622 47.492C0.331622 46.244 0.886289 45.2733 1.99562 44.58C3.10496 43.8867 4.66496 43.5227 6.67562 43.488L9.11962 43.436L9.27562 42.292C10.1076 36.7453 10.7143 32.828 11.0956 30.54L12.2396 23.728C12.933 19.7067 13.557 15.564 14.1116 11.3L9.74362 11.352C8.49562 11.352 7.62896 11.1613 7.14362 10.78C6.69296 10.364 6.46762 9.792 6.46762 9.064C6.46762 6.70667 8.16629 5.44133 11.5636 5.268C13.1583 5.19866 15.0996 5.164 17.3876 5.164L26.9036 5.216ZM51.0897 37.404C51.5404 37.404 51.8871 37.612 52.1297 38.028C52.4071 38.444 52.5457 39.016 52.5457 39.744C52.5457 41.1307 52.2164 42.2053 51.5577 42.968C50.0671 44.8053 48.4377 46.3133 46.6697 47.492C44.9017 48.6707 42.8737 49.26 40.5857 49.26C33.5137 49.26 29.9777 44.2853 29.9777 34.336C29.9777 32.8107 30.0297 31.268 30.1337 29.708H28.1057C27.0657 29.708 26.3551 29.5173 25.9737 29.136C25.6271 28.7547 25.4537 28.148 25.4537 27.316C25.4537 25.3747 26.2337 24.404 27.7937 24.404H30.7577C31.3471 20.5907 32.2484 17.1067 33.4617 13.952C34.6751 10.7973 36.1311 8.284 37.8297 6.412C39.5631 4.54 41.4177 3.604 43.3937 3.604C44.8497 3.604 45.9937 4.24533 46.8257 5.528C47.6577 6.81067 48.0737 8.42267 48.0737 10.364C48.0737 15.7373 45.8204 20.4173 41.3137 24.404H47.1377C47.6924 24.404 48.0911 24.5253 48.3337 24.768C48.5764 25.0107 48.6977 25.4613 48.6977 26.12C48.6977 28.512 46.7391 29.708 42.8217 29.708H36.4777C36.4084 31.4413 36.3737 32.7933 36.3737 33.764C36.3737 37.3693 36.7897 39.9 37.6217 41.356C38.4884 42.812 39.8404 43.54 41.6777 43.54C43.1684 43.54 44.4857 43.0893 45.6297 42.188C46.7737 41.2867 48.1257 39.9347 49.6857 38.132C50.1017 37.6467 50.5697 37.404 51.0897 37.404ZM41.9897 8.596C41.4697 8.596 40.8804 9.25467 40.2217 10.572C39.5977 11.8547 38.9911 13.6573 38.4017 15.98C37.8471 18.268 37.3791 20.816 36.9977 23.624C39.0431 21.856 40.5684 19.88 41.5737 17.696C42.6137 15.4773 43.1337 13.4667 43.1337 11.664C43.1337 9.61867 42.7524 8.596 41.9897 8.596ZM56.4238 50.404C54.6211 50.404 53.2344 49.988 52.2638 49.156C51.3278 48.324 50.8598 47.388 50.8598 46.348C50.8598 45.4467 51.1891 44.6667 51.8478 44.008C52.5064 43.3493 53.4771 43.02 54.7598 43.02C55.2104 43.02 55.7304 43.072 56.3198 43.176C56.9438 43.2453 57.4118 43.2973 57.7238 43.332C57.6891 42.4307 57.4811 41.5813 57.0998 40.784C56.7531 39.9867 56.3024 39.224 55.7478 38.496C55.1931 37.7333 54.6731 37.0747 54.1878 36.52C53.1131 38.5653 52.0384 40.264 50.9638 41.616C49.9238 42.968 48.7798 44.2507 47.5318 45.464C46.9078 46.088 46.2491 46.4 45.5558 46.4C45.0011 46.4 44.5504 46.2093 44.2038 45.828C43.8571 45.412 43.6838 44.9093 43.6838 44.32C43.6838 43.6267 43.9264 42.9853 44.4118 42.396L45.0878 41.564C46.9944 39.2067 48.4331 37.2653 49.4038 35.74C49.9931 34.7347 50.6864 33.4 51.4838 31.736C52.2811 30.0373 53.0611 28.2867 53.8238 26.484C54.4824 24.9587 55.8518 24.196 57.9318 24.196C58.9024 24.196 59.5784 24.2827 59.9598 24.456C60.3411 24.6293 60.5318 24.9067 60.5318 25.288C60.5318 25.496 60.4624 25.8253 60.3238 26.276C60.1851 26.7267 59.9944 27.1773 59.7518 27.628C59.1278 28.876 58.8158 29.9333 58.8158 30.8C58.8158 31.32 58.9891 31.892 59.3358 32.516C59.7171 33.14 60.2891 33.92 61.0518 34.856C62.1611 36.312 62.9931 37.56 63.5478 38.6C64.1371 39.6053 64.4318 40.7147 64.4318 41.928C64.4318 42.2747 64.3971 42.76 64.3278 43.384C66.0264 42.7253 68.0198 40.9747 70.3078 38.132C70.7238 37.6467 71.1918 37.404 71.7118 37.404C72.1624 37.404 72.5091 37.612 72.7518 38.028C73.0291 38.444 73.1678 39.016 73.1678 39.744C73.1678 41.0613 72.8384 42.136 72.1798 42.968C70.4464 45.1173 68.7824 46.5907 67.1878 47.388C65.6278 48.1507 63.6864 48.5667 61.3638 48.636C59.9771 49.8147 58.3304 50.404 56.4238 50.404ZM76.9512 49.26C75.6685 49.26 74.7499 48.9827 74.1952 48.428C73.6405 47.8387 73.3632 46.7467 73.3632 45.152C73.3632 44.0773 73.4672 42.708 73.6752 41.044C73.9179 39.3453 74.2992 37.0227 74.8192 34.076C75.7205 28.6333 76.4312 23.9187 76.9512 19.932C77.2632 17.436 77.4192 15.356 77.4192 13.692C77.4192 12.132 76.8472 11.352 75.7032 11.352C74.8019 11.352 73.7099 11.82 72.4272 12.756C71.1792 13.6573 69.7925 15.1133 68.2672 17.124C67.7819 17.7827 67.2445 18.112 66.6552 18.112C66.1699 18.112 65.7365 17.8867 65.3552 17.436C65.0085 16.9507 64.8352 16.4133 64.8352 15.824C64.8352 15.2693 64.9392 14.7147 65.1472 14.16C65.3899 13.5707 65.7712 12.912 66.2912 12.184C67.9552 9.86133 69.8099 8.076 71.8552 6.828C73.9005 5.54533 75.9459 4.904 77.9912 4.904C79.8979 4.904 81.3539 5.51066 82.3592 6.724C83.3992 7.93733 83.9192 9.70533 83.9192 12.028C83.9192 12.964 83.8325 14.0733 83.6592 15.356C83.4859 16.604 83.3299 17.6267 83.1912 18.424C83.0525 19.2213 82.9485 19.776 82.8792 20.088C84.8552 14.4373 87.0739 10.5027 89.5352 8.284C91.9965 6.03066 94.7005 4.904 97.6472 4.904C99.9005 4.904 101.669 5.70133 102.951 7.296C104.269 8.89066 104.927 11.144 104.927 14.056C104.927 15.2 104.771 16.6213 104.459 18.32C106.193 13.536 108.221 10.104 110.543 8.024C112.866 5.944 115.535 4.904 118.551 4.904C120.978 4.904 122.833 5.684 124.115 7.244C125.433 8.804 126.091 10.988 126.091 13.796C126.091 15.3213 125.866 17.176 125.415 19.36L122.243 34.232C121.897 35.9653 121.723 37.456 121.723 38.704C121.723 40.16 122.053 41.252 122.711 41.98C123.405 42.708 124.358 43.072 125.571 43.072C126.715 43.072 127.825 42.6907 128.899 41.928C130.009 41.1653 131.309 39.9 132.799 38.132C133.215 37.6467 133.683 37.404 134.203 37.404C134.654 37.404 135.001 37.612 135.243 38.028C135.521 38.444 135.659 39.016 135.659 39.744C135.659 41.096 135.33 42.1707 134.671 42.968C132.869 45.152 131.083 46.7467 129.315 47.752C127.547 48.7573 125.693 49.26 123.751 49.26C120.805 49.26 118.499 48.3933 116.835 46.66C115.171 44.892 114.339 42.5347 114.339 39.588C114.339 37.5427 114.755 34.5787 115.587 30.696L117.667 21.18C117.737 20.868 117.858 20.3133 118.031 19.516C118.205 18.7187 118.343 17.9733 118.447 17.28C118.551 16.552 118.603 15.8413 118.603 15.148C118.603 13.9347 118.361 13.0333 117.875 12.444C117.425 11.82 116.766 11.508 115.899 11.508C114.27 11.508 112.554 12.5653 110.751 14.68C108.983 16.76 107.285 20.2267 105.655 25.08C104.061 29.9333 102.761 36.2427 101.755 44.008C101.513 46.088 101.079 47.492 100.455 48.22C99.8659 48.9133 98.8952 49.26 97.5432 49.26C96.3645 49.26 95.4979 48.9827 94.9432 48.428C94.4232 47.8733 94.1632 46.8333 94.1632 45.308C94.1632 43.8867 94.3539 42.032 94.7352 39.744C95.1165 37.4213 95.6019 34.7 96.1912 31.58C97.7859 23.1907 98.5832 17.7827 98.5832 15.356C98.5832 14.0387 98.3232 13.068 97.8032 12.444C97.3179 11.82 96.5725 11.508 95.5672 11.508C93.8685 11.508 92.1179 12.4787 90.3152 14.42C88.5125 16.3267 86.7445 19.7413 85.0112 24.664C83.3125 29.552 81.8912 36.1733 80.7472 44.528C80.5045 46.296 80.1405 47.5267 79.6552 48.22C79.2045 48.9133 78.3032 49.26 76.9512 49.26ZM153.101 37.404C153.552 37.404 153.898 37.612 154.141 38.028C154.418 38.444 154.557 39.016 154.557 39.744C154.557 41.1307 154.228 42.2053 153.569 42.968C152.286 44.528 150.466 45.9667 148.109 47.284C145.786 48.6013 143.29 49.26 140.621 49.26C136.981 49.26 134.156 48.272 132.145 46.296C130.134 44.32 129.129 41.616 129.129 38.184C129.129 35.792 129.632 33.5733 130.637 31.528C131.642 29.448 133.029 27.8013 134.797 26.588C136.6 25.3747 138.628 24.768 140.881 24.768C142.892 24.768 144.504 25.3747 145.717 26.588C146.93 27.7667 147.537 29.3787 147.537 31.424C147.537 33.816 146.67 35.8787 144.937 37.612C143.238 39.3107 140.344 40.6627 136.253 41.668C137.12 43.2627 138.766 44.06 141.193 44.06C142.753 44.06 144.521 43.5227 146.497 42.448C148.508 41.3387 150.241 39.9 151.697 38.132C152.113 37.6467 152.581 37.404 153.101 37.404ZM139.997 29.864C138.714 29.864 137.622 30.6093 136.721 32.1C135.854 33.5907 135.421 35.3933 135.421 37.508V37.612C137.466 37.1267 139.078 36.3987 140.257 35.428C141.436 34.4573 142.025 33.3307 142.025 32.048C142.025 31.3893 141.834 30.8693 141.453 30.488C141.106 30.072 140.621 29.864 139.997 29.864ZM163.271 49.416C158.661 49.416 154.969 48.5493 152.195 46.816C149.422 45.048 148.035 42.3613 148.035 38.756C148.035 36.8493 148.365 35.3933 149.023 34.388C149.682 33.3827 150.653 32.88 151.935 32.88C152.871 32.88 153.634 33.1227 154.223 33.608C154.813 34.0933 155.107 34.7173 155.107 35.48C155.107 36.1733 155.055 36.78 154.951 37.3C154.951 37.4387 154.917 37.6813 154.847 38.028C154.813 38.3747 154.795 38.7387 154.795 39.12C154.795 40.68 155.575 41.8413 157.135 42.604C158.73 43.3667 160.949 43.748 163.791 43.748C166.738 43.748 169.043 43.228 170.707 42.188C172.371 41.1133 173.203 39.6227 173.203 37.716C173.203 36.5373 172.822 35.532 172.059 34.7C171.297 33.8333 170.343 33.1227 169.199 32.568C168.055 31.9787 166.443 31.268 164.363 30.436C161.694 29.396 159.51 28.408 157.811 27.472C156.147 26.536 154.709 25.2707 153.495 23.676C152.317 22.0467 151.727 20.036 151.727 17.644C151.727 15.148 152.386 12.9293 153.703 10.988C155.055 9.04666 156.979 7.53866 159.475 6.464C162.006 5.38933 164.97 4.852 168.367 4.852C170.898 4.852 173.221 5.23333 175.335 5.996C177.45 6.724 179.131 7.85066 180.379 9.376C181.662 10.9013 182.303 12.7733 182.303 14.992C182.303 17.176 181.974 18.8227 181.315 19.932C180.657 21.0413 179.686 21.596 178.403 21.596C177.502 21.596 176.739 21.3187 176.115 20.764C175.526 20.2093 175.231 19.5507 175.231 18.788C175.231 18.1293 175.283 17.5227 175.387 16.968C175.491 15.928 175.543 15.2693 175.543 14.992C175.543 13.536 174.833 12.4267 173.411 11.664C171.99 10.9013 170.222 10.52 168.107 10.52C165.126 10.52 162.838 11.0747 161.243 12.184C159.683 13.2587 158.903 14.784 158.903 16.76C158.903 18.0773 159.302 19.204 160.099 20.14C160.931 21.076 161.954 21.856 163.167 22.48C164.381 23.104 166.079 23.8493 168.263 24.716C170.898 25.7907 173.013 26.7613 174.607 27.628C176.202 28.4947 177.554 29.6733 178.663 31.164C179.807 32.6547 180.379 34.492 180.379 36.676C180.379 40.7667 178.819 43.9213 175.699 46.14C172.614 48.324 168.471 49.416 163.271 49.416ZM186.696 49.26C185.379 49.26 184.443 48.5667 183.888 47.18C183.368 45.7933 183.108 43.5747 183.108 40.524C183.108 36.0173 183.749 31.736 185.032 27.68C185.344 26.6747 185.847 25.9467 186.54 25.496C187.268 25.0107 188.273 24.768 189.556 24.768C190.249 24.768 190.735 24.8547 191.012 25.028C191.289 25.2013 191.428 25.5307 191.428 26.016C191.428 26.5707 191.168 27.8187 190.648 29.76C190.301 31.1467 190.024 32.36 189.816 33.4C189.608 34.44 189.435 35.7227 189.296 37.248C190.44 34.2667 191.723 31.84 193.144 29.968C194.565 28.096 195.952 26.7613 197.304 25.964C198.691 25.1667 199.956 24.768 201.1 24.768C203.353 24.768 204.48 25.8947 204.48 28.148C204.48 28.5987 204.324 29.6907 204.012 31.424C203.735 32.8107 203.596 33.6773 203.596 34.024C203.596 35.2373 204.029 35.844 204.896 35.844C205.867 35.844 207.115 35.0813 208.64 33.556C209.091 33.1053 209.559 32.88 210.044 32.88C210.495 32.88 210.841 33.088 211.084 33.504C211.361 33.8853 211.5 34.4053 211.5 35.064C211.5 36.3467 211.153 37.352 210.46 38.08C209.489 39.0853 208.345 39.952 207.028 40.68C205.745 41.3733 204.376 41.72 202.92 41.72C201.083 41.72 199.679 41.252 198.708 40.316C197.772 39.38 197.304 38.1147 197.304 36.52C197.304 36 197.356 35.48 197.46 34.96C197.529 34.2667 197.564 33.7987 197.564 33.556C197.564 33.0013 197.373 32.724 196.992 32.724C196.472 32.724 195.779 33.3133 194.912 34.492C194.08 35.636 193.248 37.1613 192.416 39.068C191.584 40.9747 190.908 42.9853 190.388 45.1C190.007 46.7293 189.556 47.8387 189.036 48.428C188.551 48.9827 187.771 49.26 186.696 49.26ZM211.92 21.336C210.464 21.336 209.372 21.0067 208.644 20.348C207.916 19.6547 207.552 18.7013 207.552 17.488C207.552 16.2747 208.02 15.2693 208.956 14.472C209.927 13.64 211.123 13.224 212.544 13.224C213.827 13.224 214.867 13.536 215.664 14.16C216.461 14.784 216.86 15.668 216.86 16.812C216.86 18.1987 216.409 19.308 215.508 20.14C214.607 20.9373 213.411 21.336 211.92 21.336ZM211.504 49.26C209.251 49.26 207.604 48.4627 206.564 46.868C205.559 45.2733 205.056 43.1587 205.056 40.524C205.056 38.964 205.247 36.9707 205.628 34.544C206.044 32.0827 206.564 29.7947 207.188 27.68C207.5 26.5707 207.916 25.808 208.436 25.392C208.956 24.976 209.788 24.768 210.932 24.768C212.7 24.768 213.584 25.3573 213.584 26.536C213.584 27.4027 213.255 29.4133 212.596 32.568C211.764 36.3813 211.348 38.964 211.348 40.316C211.348 41.356 211.487 42.1533 211.764 42.708C212.041 43.2627 212.509 43.54 213.168 43.54C213.792 43.54 214.572 43.1067 215.508 42.24C216.444 41.3733 217.692 40.004 219.252 38.132C219.668 37.6467 220.136 37.404 220.656 37.404C221.107 37.404 221.453 37.612 221.696 38.028C221.973 38.444 222.112 39.016 222.112 39.744C222.112 41.1307 221.783 42.2053 221.124 42.968C217.692 47.1627 214.485 49.26 211.504 49.26ZM245.881 37.404C246.332 37.404 246.678 37.612 246.921 38.028C247.198 38.444 247.337 39.016 247.337 39.744C247.337 41.1307 247.008 42.2053 246.349 42.968C244.928 44.7013 243.368 46.192 241.669 47.44C239.97 48.6533 238.289 49.26 236.625 49.26C233.99 49.26 231.98 47.7173 230.593 44.632C229.137 46.4693 227.854 47.7 226.745 48.324C225.67 48.948 224.405 49.26 222.949 49.26C220.834 49.26 219.084 48.48 217.697 46.92C216.345 45.3253 215.669 43.2627 215.669 40.732C215.669 37.9587 216.258 35.3933 217.437 33.036C218.616 30.644 220.228 28.7027 222.273 27.212C224.353 25.6867 226.676 24.7853 229.241 24.508C229.9 17.7827 231.148 12.0453 232.985 7.296C234.857 2.512 237.301 0.119997 240.317 0.119997C241.808 0.119997 243.038 0.795998 244.009 2.148C245.014 3.5 245.517 5.54533 245.517 8.284C245.517 12.1667 244.564 16.708 242.657 21.908C240.75 27.108 238.202 32.4467 235.013 37.924C235.152 39.9347 235.446 41.3733 235.897 42.24C236.382 43.1067 236.989 43.54 237.717 43.54C238.653 43.54 239.606 43.124 240.577 42.292C241.548 41.46 242.848 40.0733 244.477 38.132C244.893 37.6467 245.361 37.404 245.881 37.404ZM239.745 5.216C239.086 5.216 238.428 6.39466 237.769 8.752C237.11 11.0747 236.538 14.1253 236.053 17.904C235.602 21.6827 235.273 25.6347 235.065 29.76C238.948 21.3013 240.889 14.5067 240.889 9.376C240.889 8.05867 240.768 7.036 240.525 6.308C240.317 5.58 240.057 5.216 239.745 5.216ZM224.769 44.008C225.428 44.008 226.086 43.748 226.745 43.228C227.404 42.6733 228.236 41.668 229.241 40.212C228.894 38.34 228.721 36.2427 228.721 33.92C228.721 33.088 228.756 31.736 228.825 29.864C226.918 30.4533 225.324 31.736 224.041 33.712C222.793 35.6533 222.169 37.82 222.169 40.212C222.169 42.7427 223.036 44.008 224.769 44.008ZM270.407 37.404C270.857 37.404 271.204 37.612 271.447 38.028C271.724 38.444 271.863 39.016 271.863 39.744C271.863 41.1307 271.533 42.2053 270.875 42.968C269.28 44.8053 267.633 46.3133 265.935 47.492C264.271 48.6707 262.364 49.26 260.215 49.26C258.447 49.26 257.112 48.7573 256.211 47.752C255.309 46.712 254.859 45.2213 254.859 43.28C254.859 42.3093 255.101 40.576 255.587 38.08C256.037 35.896 256.263 34.388 256.263 33.556C256.263 33.0013 256.072 32.724 255.691 32.724C255.24 32.724 254.599 33.3133 253.767 34.492C252.935 35.636 252.103 37.1613 251.271 39.068C250.439 40.9747 249.763 42.9853 249.243 45.1C248.584 47.8733 246.955 49.26 244.355 49.26C243.315 49.26 242.621 48.896 242.275 48.168C241.963 47.4053 241.807 46.0533 241.807 44.112C241.807 43.0027 241.824 42.1187 241.859 41.46L241.911 37.3C241.911 31.9613 242.448 26.3973 243.523 20.608C244.632 14.8187 246.244 9.96533 248.359 6.048C250.508 2.096 253.073 0.119997 256.055 0.119997C257.649 0.119997 258.932 0.813331 259.903 2.2C260.908 3.552 261.411 5.32 261.411 7.504C261.411 11.0053 260.388 14.6453 258.343 18.424C256.297 22.168 252.969 26.5533 248.359 31.58C248.255 33.3827 248.203 35.2373 248.203 37.144C249.347 34.1973 250.612 31.8053 251.999 29.968C253.42 28.096 254.807 26.7613 256.159 25.964C257.545 25.1667 258.811 24.768 259.955 24.768C262.208 24.768 263.335 25.8947 263.335 28.148C263.335 29.5 262.953 31.944 262.191 35.48C261.532 38.496 261.203 40.4893 261.203 41.46C261.203 42.8467 261.705 43.54 262.711 43.54C263.404 43.54 264.219 43.124 265.155 42.292C266.125 41.4253 267.408 40.0387 269.003 38.132C269.419 37.6467 269.887 37.404 270.407 37.404ZM254.963 5.268C254.339 5.268 253.645 6.16933 252.883 7.972C252.12 9.74 251.375 12.1493 250.647 15.2C249.953 18.216 249.381 21.5093 248.931 25.08C251.08 22.5493 252.848 19.7933 254.235 16.812C255.656 13.8307 256.367 11.1267 256.367 8.7C256.367 7.59066 256.245 6.74133 256.003 6.152C255.76 5.56266 255.413 5.268 254.963 5.268ZM272.484 49.26C270.335 49.26 268.619 48.48 267.336 46.92C266.053 45.36 265.412 43.3147 265.412 40.784C265.412 38.0107 266.053 35.3933 267.336 32.932C268.619 30.436 270.317 28.4427 272.432 26.952C274.581 25.4267 276.852 24.664 279.244 24.664C280.007 24.664 280.509 24.82 280.752 25.132C281.029 25.4093 281.255 25.9293 281.428 26.692C282.156 26.5533 282.919 26.484 283.716 26.484C285.415 26.484 286.264 27.0907 286.264 28.304C286.264 29.032 286.004 30.7653 285.484 33.504C284.687 37.4907 284.288 40.264 284.288 41.824C284.288 42.344 284.409 42.76 284.652 43.072C284.929 43.384 285.276 43.54 285.692 43.54C286.351 43.54 287.148 43.124 288.084 42.292C289.02 41.4253 290.285 40.0387 291.88 38.132C292.296 37.6467 292.764 37.404 293.284 37.404C293.735 37.404 294.081 37.612 294.324 38.028C294.601 38.444 294.74 39.016 294.74 39.744C294.74 41.1307 294.411 42.2053 293.752 42.968C292.331 44.736 290.823 46.2267 289.228 47.44C287.633 48.6533 286.091 49.26 284.6 49.26C283.456 49.26 282.399 48.8787 281.428 48.116C280.492 47.3187 279.781 46.244 279.296 44.892C277.493 47.804 275.223 49.26 272.484 49.26ZM274.356 44.008C275.119 44.008 275.847 43.5573 276.54 42.656C277.233 41.7547 277.736 40.5587 278.048 39.068L279.972 29.5C278.516 29.5347 277.164 30.0893 275.916 31.164C274.703 32.204 273.732 33.5907 273.004 35.324C272.276 37.0573 271.912 38.8947 271.912 40.836C271.912 41.9107 272.12 42.708 272.536 43.228C272.987 43.748 273.593 44.008 274.356 44.008ZM292.646 49.26C291.329 49.26 290.393 48.5667 289.838 47.18C289.318 45.7933 289.058 43.5747 289.058 40.524C289.058 36.0173 289.699 31.736 290.982 27.68C291.294 26.6747 291.797 25.9467 292.49 25.496C293.218 25.0107 294.223 24.768 295.506 24.768C296.199 24.768 296.685 24.8547 296.962 25.028C297.239 25.2013 297.378 25.5307 297.378 26.016C297.378 26.5707 297.118 27.8187 296.598 29.76C296.251 31.1467 295.974 32.36 295.766 33.4C295.558 34.44 295.385 35.7227 295.246 37.248C296.39 34.2667 297.673 31.84 299.094 29.968C300.515 28.096 301.902 26.7613 303.254 25.964C304.641 25.1667 305.906 24.768 307.05 24.768C309.303 24.768 310.43 25.8947 310.43 28.148C310.43 29.5 310.049 31.944 309.286 35.48C308.627 38.496 308.298 40.4893 308.298 41.46C308.298 42.8467 308.801 43.54 309.806 43.54C310.499 43.54 311.314 43.124 312.25 42.292C313.221 41.4253 314.503 40.0387 316.098 38.132C316.514 37.6467 316.982 37.404 317.502 37.404C317.953 37.404 318.299 37.612 318.542 38.028C318.819 38.444 318.958 39.016 318.958 39.744C318.958 41.1307 318.629 42.2053 317.97 42.968C316.479 44.8053 314.867 46.3133 313.134 47.492C311.435 48.6707 309.494 49.26 307.31 49.26C305.542 49.26 304.207 48.7573 303.306 47.752C302.405 46.712 301.954 45.2213 301.954 43.28C301.954 42.3093 302.197 40.576 302.682 38.08C303.133 35.896 303.358 34.388 303.358 33.556C303.358 33.0013 303.167 32.724 302.786 32.724C302.335 32.724 301.694 33.3133 300.862 34.492C300.065 35.636 299.233 37.1613 298.366 39.068C297.534 40.9747 296.858 42.9853 296.338 45.1C295.957 46.7293 295.506 47.8387 294.986 48.428C294.501 48.9827 293.721 49.26 292.646 49.26ZM321.771 29.708C321.701 31.4413 321.667 32.7933 321.667 33.764C321.667 36.26 321.788 38.2187 322.031 39.64C322.308 41.0267 322.741 42.032 323.331 42.656C323.955 43.2453 324.804 43.54 325.879 43.54C326.433 43.54 327.092 43.3667 327.855 43.02C328.617 42.6733 329.311 42.2227 329.935 41.668C330.316 41.3213 330.697 41.148 331.079 41.148C331.495 41.148 331.824 41.3907 332.067 41.876C332.344 42.3267 332.483 42.8813 332.483 43.54C332.483 44.1987 332.344 44.84 332.067 45.464C331.824 46.088 331.443 46.608 330.923 47.024C329.12 48.5147 327.075 49.26 324.787 49.26C321.493 49.26 319.084 47.8907 317.559 45.152C316.033 42.3787 315.271 38.7733 315.271 34.336C315.271 32.8107 315.323 31.268 315.427 29.708H313.399C312.359 29.708 311.648 29.5173 311.267 29.136C310.92 28.7547 310.747 28.148 310.747 27.316C310.747 25.3747 311.527 24.404 313.087 24.404H316.051C316.64 20.5907 317.541 17.1067 318.755 13.952C319.968 10.7973 321.424 8.284 323.123 6.412C324.856 4.54 326.711 3.604 328.687 3.604C330.143 3.604 331.287 4.24533 332.119 5.528C332.951 6.81067 333.367 8.42267 333.367 10.364C333.367 15.7373 331.113 20.4173 326.607 24.404H332.431C332.985 24.404 333.384 24.5253 333.627 24.768C333.869 25.0107 333.991 25.4613 333.991 26.12C333.991 28.512 332.032 29.708 328.115 29.708H321.771ZM327.283 8.596C326.763 8.596 326.173 9.25467 325.515 10.572C324.891 11.8547 324.284 13.6573 323.695 15.98C323.14 18.268 322.672 20.816 322.291 23.624C324.336 21.856 325.861 19.88 326.867 17.696C327.907 15.4773 328.427 13.4667 328.427 11.664C328.427 9.61867 328.045 8.596 327.283 8.596ZM338.781 49.26C337.256 49.26 336.095 48.844 335.297 48.012C334.535 47.18 334.153 46.088 334.153 44.736C334.153 43.176 334.587 41.928 335.453 40.992C336.355 40.056 337.603 39.588 339.197 39.588C340.723 39.588 341.867 39.9693 342.629 40.732C343.427 41.46 343.825 42.552 343.825 44.008C343.825 45.6027 343.375 46.8853 342.473 47.856C341.572 48.792 340.341 49.26 338.781 49.26ZM353.293 21.336C351.837 21.336 350.745 21.0067 350.017 20.348C349.289 19.6547 348.925 18.7013 348.925 17.488C348.925 16.2747 349.393 15.2693 350.329 14.472C351.3 13.64 352.496 13.224 353.917 13.224C355.2 13.224 356.24 13.536 357.037 14.16C357.834 14.784 358.233 15.668 358.233 16.812C358.233 18.1987 357.782 19.308 356.881 20.14C355.98 20.9373 354.784 21.336 353.293 21.336ZM352.877 49.26C350.624 49.26 348.977 48.4627 347.937 46.868C346.932 45.2733 346.429 43.1587 346.429 40.524C346.429 38.964 346.62 36.9707 347.001 34.544C347.417 32.0827 347.937 29.7947 348.561 27.68C348.873 26.5707 349.289 25.808 349.809 25.392C350.329 24.976 351.161 24.768 352.305 24.768C354.073 24.768 354.957 25.3573 354.957 26.536C354.957 27.4027 354.628 29.4133 353.969 32.568C353.137 36.3813 352.721 38.964 352.721 40.316C352.721 41.356 352.86 42.1533 353.137 42.708C353.414 43.2627 353.882 43.54 354.541 43.54C355.165 43.54 355.945 43.1067 356.881 42.24C357.817 41.3733 359.065 40.004 360.625 38.132C361.041 37.6467 361.509 37.404 362.029 37.404C362.48 37.404 362.826 37.612 363.069 38.028C363.346 38.444 363.485 39.016 363.485 39.744C363.485 41.1307 363.156 42.2053 362.497 42.968C359.065 47.1627 355.858 49.26 352.877 49.26ZM366.506 49.26C364.461 49.26 362.71 48.7573 361.254 47.752C359.833 46.712 358.758 45.36 358.03 43.696C357.302 42.032 356.938 40.2467 356.938 38.34C356.938 35.7053 357.423 33.3653 358.394 31.32C359.399 29.24 360.751 27.628 362.45 26.484C364.149 25.3053 366.055 24.716 368.17 24.716C370.215 24.716 371.966 25.236 373.422 26.276C374.878 27.2813 375.97 28.616 376.698 30.28C377.426 31.944 377.79 33.7293 377.79 35.636C377.79 38.2707 377.287 40.628 376.282 42.708C375.277 44.7533 373.907 46.3653 372.174 47.544C370.475 48.688 368.586 49.26 366.506 49.26ZM367.078 43.644C368.257 43.644 369.245 43.0027 370.042 41.72C370.874 40.4373 371.29 38.5653 371.29 36.104C371.29 34.1973 370.943 32.7587 370.25 31.788C369.557 30.8173 368.725 30.332 367.754 30.332C366.506 30.332 365.466 30.9733 364.634 32.256C363.837 33.504 363.438 35.376 363.438 37.872C363.438 39.848 363.785 41.304 364.478 42.24C365.171 43.176 366.038 43.644 367.078 43.644Z" fill="#171717"/>
</svg>
